<svg width="18" height="18" viewBox="0 0 18 18" fill="none" xmlns="http://www.w3.org/2000/svg">
<path fill-rule="evenodd" clip-rule="evenodd" d="M9 0C9.21697 0 9.42514 0.0862009 9.57853 0.239639C9.73197 0.393079 9.81817 0.601189 9.81817 0.818182V1.63636C9.81817 1.85336 9.73197 2.06146 9.57853 2.21491C9.42514 2.36834 9.21697 2.45455 9 2.45455C8.78303 2.45455 8.57486 2.36834 8.42147 2.21491C8.26803 2.06146 8.18183 1.85336 8.18183 1.63636V0.818182C8.18183 0.601189 8.26803 0.393079 8.42147 0.239639C8.57486 0.0862009 8.78303 0 9 0ZM1.87609 1.87609C2.02952 1.7227 2.23759 1.63654 2.45454 1.63654C2.6715 1.63654 2.87957 1.7227 3.033 1.87609L4.26027 3.10336C4.40931 3.25767 4.49178 3.46435 4.48991 3.67887C4.48806 3.8934 4.40201 4.09861 4.25031 4.25031C4.09861 4.402 3.8934 4.48805 3.67887 4.48991C3.46434 4.49177 3.25767 4.40931 3.10337 4.26027L1.87609 3.033C1.72271 2.87957 1.63654 2.67149 1.63654 2.45455C1.63654 2.2376 1.72271 2.02952 1.87609 1.87609ZM16.1239 1.87609C16.2773 2.02952 16.3635 2.2376 16.3635 2.45455C16.3635 2.67149 16.2773 2.87957 16.1239 3.033L14.8967 4.26027C14.8212 4.33841 14.7309 4.40074 14.631 4.44363C14.5313 4.48651 14.4239 4.50908 14.3153 4.51002C14.2066 4.51096 14.0988 4.49026 13.9983 4.44913C13.8978 4.40799 13.8064 4.34723 13.7296 4.27042C13.6528 4.19359 13.592 4.10224 13.5509 4.00169C13.5097 3.90114 13.4891 3.7934 13.4899 3.68476C13.4909 3.57613 13.5135 3.46876 13.5564 3.36895C13.5992 3.26912 13.6616 3.17884 13.7397 3.10336L14.967 1.87609C15.1204 1.7227 15.3285 1.63654 15.5454 1.63654C15.7625 1.63654 15.9705 1.7227 16.1239 1.87609ZM0 9C0 8.78302 0.086201 8.57487 0.23964 8.42149C0.393079 8.26805 0.601185 8.18182 0.818183 8.18182H1.63637C1.85336 8.18182 2.06147 8.26805 2.21491 8.42149C2.36834 8.57487 2.45454 8.78302 2.45454 9C2.45454 9.21698 2.36834 9.42513 2.21491 9.57851C2.06147 9.73195 1.85336 9.81818 1.63637 9.81818H0.818183C0.601185 9.81818 0.393079 9.73195 0.23964 9.57851C0.086201 9.42513 0 9.21698 0 9ZM15.5454 9C15.5454 8.78302 15.6317 8.57487 15.7851 8.42149C15.9385 8.26805 16.1466 8.18182 16.3637 8.18182H17.1818C17.3988 8.18182 17.607 8.26805 17.7604 8.42149C17.9137 8.57487 18 8.78302 18 9C18 9.21698 17.9137 9.42513 17.7604 9.57851C17.607 9.73195 17.3988 9.81818 17.1818 9.81818H16.3637C16.1466 9.81818 15.9385 9.73195 15.7851 9.57851C15.6317 9.42513 15.5454 9.21698 15.5454 9ZM4.26027 13.7397C4.41366 13.8931 4.49983 14.1012 4.49983 14.3182C4.49983 14.5352 4.41366 14.7433 4.26027 14.8966L3.033 16.1239C2.87869 16.273 2.67202 16.3555 2.45749 16.3535C2.24297 16.3517 2.03776 16.2656 1.88605 16.1139C1.73436 15.9622 1.64831 15.757 1.64645 15.5425C1.64459 15.328 1.72705 15.1213 1.87609 14.967L3.10337 13.7397C3.2568 13.5863 3.46487 13.5002 3.68182 13.5002C3.89877 13.5002 4.10684 13.5863 4.26027 13.7397ZM13.7397 13.7397C13.8931 13.5863 14.1012 13.5002 14.3182 13.5002C14.5351 13.5002 14.7432 13.5863 14.8967 13.7397L16.1239 14.967C16.273 15.1213 16.3554 15.328 16.3536 15.5425C16.3517 15.757 16.2656 15.9622 16.1139 16.1139C15.9623 16.2656 15.7571 16.3517 15.5425 16.3535C15.328 16.3555 15.1213 16.273 14.967 16.1239L13.7397 14.8966C13.5863 14.7433 13.5001 14.5352 13.5001 14.3182C13.5001 14.1012 13.5863 13.8931 13.7397 13.7397ZM9 15.5455C9.21697 15.5455 9.42514 15.6317 9.57853 15.7851C9.73197 15.9385 9.81817 16.1467 9.81817 16.3636V17.1818C9.81817 17.3988 9.73197 17.6069 9.57853 17.7603C9.42514 17.9138 9.21697 18 9 18C8.78303 18 8.57486 17.9138 8.42147 17.7603C8.26803 17.6069 8.18183 17.3988 8.18183 17.1818V16.3636C8.18183 16.1467 8.26803 15.9385 8.42147 15.7851C8.57486 15.6317 8.78303 15.5455 9 15.5455Z" fill="#818181"/>
<path d="M9.00001 4.26316C7.54454 4.26316 6.14872 4.78717 5.11955 5.71991C4.09039 6.65269 3.51221 7.91777 3.51221 9.23684C3.51221 10.556 4.09039 11.821 5.11955 12.7538C6.14872 13.6865 7.54454 14.2105 9.00001 14.2105C10.4555 14.2105 11.8513 13.6865 12.8805 12.7538C13.9096 11.821 14.4878 10.556 14.4878 9.23684C14.4878 7.91777 13.9096 6.65269 12.8805 5.71991C11.8513 4.78717 10.4555 4.26316 9.00001 4.26316Z" fill="#818181"/>
</svg>
