<svg width="1591" height="1250" viewBox="0 0 1591 1250" fill="none" xmlns="http://www.w3.org/2000/svg">
<path d="M1423.07 318.626C1451.64 331.099 1478.5 343.627 1506.29 354.599C1521.46 360.588 1525.45 368.533 1522.29 381.38C1515.96 407.126 1511.69 433.226 1504.64 458.827C1501.23 471.208 1505.76 478.885 1516.75 486.511C1559.09 515.891 1552.84 505.337 1533.46 545.212C1524.74 563.158 1515.38 580.896 1504.51 602.243C1528.2 593.016 1546.56 584.129 1567.86 581.761C1574.5 581.022 1582.27 578.522 1586.35 584.878C1589.83 590.287 1583.47 594.129 1580.23 598.167C1567.43 614.16 1548.41 625.449 1531.11 639.277C1545.11 642.761 1557.69 645.274 1569.66 649.068C1579.14 652.071 1591.45 656.071 1589.92 665.644C1588.31 675.744 1574.77 675.194 1564.88 676.075C1547.52 677.621 1531.09 675.194 1514.8 669.319C1481.22 657.208 1474.91 659.808 1460.64 687.049C1440.68 725.137 1437.72 766.286 1428.55 806.242C1405.49 906.723 1383.71 1007.4 1362.05 1108.09C1358.87 1122.85 1352.45 1130.1 1332.16 1130.93C1304.22 1132.07 1276.54 1137.19 1248.67 1140.04C1233.14 1141.63 1222.46 1146.13 1216.85 1159.52C1208.88 1178.54 1197.8 1196.68 1188.62 1215.39C1184.05 1224.71 1177.4 1227.05 1164.8 1226.03C1106.84 1221.32 1048.72 1217.79 990.665 1213.82C913.456 1208.54 836.222 1203.47 759.053 1197.83C729.77 1195.69 701.786 1202.19 673.343 1205.1C597.148 1212.9 521.188 1222.22 445.104 1230.76C430.597 1232.39 417.315 1234.8 406.437 1244.2C395.612 1253.55 387.127 1248.99 381.475 1238.69C374.692 1226.34 375.913 1212.7 372.446 1196.92C353.789 1209.69 335.973 1219.75 314.342 1223.87C291.303 1228.26 285.5 1223.1 291.473 1203.99C295.515 1191.06 305.503 1181.31 318.051 1170.32C296.46 1164.89 275.783 1165.05 255.9 1164.28C238.213 1163.6 230.712 1158.71 226.802 1144.88C198.163 1043.57 168.76 942.399 139.539 841.199C128.066 801.467 117.97 761.413 104.442 722.148C91.7714 685.376 65.9546 652.973 46.5982 618.394C33.4948 594.987 19.8171 571.766 5.32593 548.913C-1.08361 538.805 -1.46175 530.152 10.476 524.103C40.7754 508.75 40.4866 487.49 30.9261 463.311C25.6827 450.051 23.2095 436.063 17.9948 422.794C13.1192 410.387 17.8104 403.361 31.3296 396.874C85.7702 370.754 139.648 343.853 193.69 317.181C216.646 305.851 218.799 301.085 203.678 282.542C187.438 262.625 184.502 242.233 194.988 220.394C197.942 214.242 201.824 207.109 211.166 206.501C221.293 205.841 224.524 213.487 227.745 219.454C232.318 227.928 235.743 236.814 242.393 246.417C255.098 217.336 265.307 187.314 306.238 172.77C319.137 206.042 298.807 233.509 288.163 262.347C302.977 266.106 310.754 258.269 320.119 254.561C408.46 219.59 473.261 160.913 542.992 107.243C584.944 74.9538 626.88 42.6316 667.831 9.50974C680.983 -1.12693 692.539 -2.8702 707.17 5.89153C711.008 8.19016 715.943 9.28485 719.731 11.6243C751.12 31.0084 781.927 34.2143 813.091 10.9641C823.345 3.31491 833.641 5.45398 844.103 12.8697C901.112 53.2805 959.511 92.426 1015.45 133.789C1048.32 158.096 1088.39 171.401 1126.08 188.27C1224.19 232.175 1323.13 274.86 1423.07 318.626ZM1218.54 982.818C1223.8 978.007 1225.54 970.281 1237.58 968.937C1256.68 991.721 1249.21 1018.77 1252.15 1048.07C1261.34 1030.22 1268.51 1016.31 1275.65 1002.38C1323.07 909.952 1370.4 817.491 1418 725.121C1422.66 716.092 1426.45 707.648 1411.74 703.14C1377.48 692.647 1369.57 666.778 1357.9 643.022C1356.33 639.829 1355.24 636.487 1359.02 633.784C1362.71 631.15 1366.62 632.573 1370.6 633.576C1379.54 635.822 1385.03 644.096 1396.44 643.388C1401.16 619.012 1402.36 593.768 1424.46 572.398C1439.96 586.9 1437.66 604.254 1446.16 620.992C1459.54 579.393 1464.73 539.283 1475.46 500.1C1479.47 485.467 1472.86 476.778 1459.5 467.496C1346.6 389.028 1234.37 309.922 1121.83 231.112C1089.55 208.507 1059.92 182.105 1023.82 164.671C945.902 127.042 864.524 94.1863 784.724 59.1321C773.869 54.3636 764.66 54.4381 754.035 59.7486C651.579 110.959 548.905 161.88 446.398 213.024C442.382 215.028 435.234 216.101 438.889 224.222C510.684 205.524 583.59 192.339 662.983 199.108C640.172 234.448 600.956 243.524 563.829 252.781C566.657 261.846 576.569 263.059 575.584 269.937C553.824 286.831 510.239 291.094 484.092 278.565C468.117 270.91 452.622 262.592 436.686 254.88C428.829 251.078 420.708 249.061 411.45 253.143C386.054 264.34 359.923 274.928 338.926 291.24C254.397 356.911 170.865 423.437 86.0419 488.852C69.5363 501.581 63.0236 513.661 71.1938 531.35C75.7468 541.208 77.6121 551.934 80.1804 562.352C101.483 648.765 128.939 733.436 185.062 810.04C188.073 814.15 188.347 819.932 195.568 821.867C202.121 817.195 201.663 810.807 201.242 804.903C199.799 784.662 195.295 765.014 183.075 746.929C164.127 718.884 168.23 686.33 153.802 656.709C187.907 657.449 187.892 657.163 189.242 630.204C189.885 617.38 191.239 604.485 193.858 591.84C199.487 564.655 208.937 538.427 227.298 514.839C231.706 509.175 237.599 505.708 246.095 506.788C254.496 507.855 256.087 513.593 257.771 519.12C259.258 524.003 260.596 528.929 262.423 533.729C269.241 551.638 270.652 570.876 280.822 587.89C310.358 582.02 313.562 584.197 310.904 608.856C310.009 617.164 307.106 625.32 305.379 633.581C304.705 636.805 302.894 641.745 304.745 643.148C319.667 654.467 309.821 665.959 305.417 676.98C299.413 692.007 296.179 707.293 294.638 722.969C292.138 748.381 281.504 769.648 250.684 781.192C234.003 787.44 223.055 798.908 221.185 813.566C217.749 840.497 219.128 867.562 233.736 892.534C271.569 957.21 310.158 1021.59 348.531 1086.06C351.509 1091.06 355.162 1095.79 358.501 1100.65C362.015 1093.55 361.182 1087.88 362.144 1082.42C371.197 1031.07 353.23 985.284 320.863 941.872C288.888 898.986 277.238 851.753 279.533 801.901C280.355 784.03 283.924 781.868 304.045 789.582C337.548 802.427 365.957 820.493 388.46 844.674C392.756 849.29 395.224 855.948 405.706 857.138C411.583 838.795 407.409 822.111 395.583 806.329C389.141 797.732 381.539 789.612 376.178 780.598C366.881 764.967 362.314 748.62 375.536 732.748C383.327 723.396 392.688 721.587 401.637 732.007C405.16 736.109 408.303 740.562 410.633 745.185C416.273 756.375 423.287 765.318 440.606 759.963C454.128 792.273 412.912 818.443 427.072 854.674C447.241 832.728 472.344 815.707 467.866 791.944C461.83 759.909 485.15 745.906 510.102 730.843C521.873 723.738 531.852 725.403 537.124 737.787C545.135 756.606 549.626 775.106 540.953 795.092C534.111 810.857 536.703 827.482 539.823 845.109C562.665 838.774 581.912 829.892 603.261 829.25C630.935 828.418 659.528 833.731 683.916 817.811C684.336 817.537 686.192 818.726 690.083 820.39C683.891 840.557 678.152 861.462 676.434 883.122C673.006 926.342 655.956 965.14 611.986 993.283C598.493 1001.92 587.473 1012.87 577.742 1024.5C542.794 1066.3 525.46 1117.11 475.474 1151.75C490.812 1159.55 503.001 1164.41 518.223 1165.3C557.876 1167.6 597.379 1171.56 636.992 1174.38C672.524 1176.91 708.399 1182.15 743.627 1180.21C796.853 1177.28 849.655 1169.19 902.624 1163.22C997.021 1152.58 1091.42 1141.91 1185.79 1131.15C1196.33 1129.95 1210.27 1131.33 1213.43 1120.57C1216.89 1108.79 1206.75 1100.65 1195.28 1094.67C1180.59 1087.03 1163.4 1084.44 1147.18 1080.01C1127.44 1074.62 1111.99 1065.51 1101.21 1050.77C1089.39 1034.6 1092.13 1030.17 1115.21 1026.72C1134.72 1023.81 1152.67 1030.13 1170.95 1032.72C1178.75 1019.9 1168.69 1005.94 1178.5 994.436C1194.38 996.25 1195.94 1009.64 1206.31 1015.59C1210 1004.64 1213.45 994.42 1216.8 984.325C1216.8 984.325 1216.69 984.434 1218.54 982.818ZM299.798 1044.52C252.758 965.543 205.717 886.57 157.333 805.342C154.834 809.529 154.195 810.074 154.298 810.501C180.684 919.505 214.919 1027.04 245.642 1135.24C248.187 1144.2 254.635 1148.11 265.943 1148.53C288.518 1149.37 311.05 1150.95 333.603 1152.19C341.369 1152.62 350.858 1157.7 356.167 1150.14C360.627 1143.8 354.322 1137.25 350.938 1131.39C334.592 1103.09 317.813 1074.96 299.798 1044.52ZM1286.59 324.223C1350.59 369.326 1414.58 414.429 1481.27 461.431C1491.47 432.383 1495.79 407.052 1500.4 381.764C1502.27 371.504 1492.86 368.289 1484.47 364.598C1420.45 336.449 1356.44 308.284 1292.3 280.322C1238.09 256.691 1183.72 233.325 1129.42 209.842C1128.72 210.703 1128.02 211.564 1127.32 212.425C1179.66 249.181 1232 285.937 1286.59 324.223ZM1388.79 891.734C1395.71 859.802 1402.63 827.871 1409.55 795.939C1407.99 795.586 1406.43 795.233 1404.87 794.879C1349.04 903.547 1293.21 1012.22 1235.78 1123.98C1268.85 1123.6 1294.7 1117.98 1321 1115.95C1335.67 1114.82 1341.34 1109.28 1343.88 1097.11C1357.99 1029.51 1373.45 962.087 1388.79 891.734ZM129.835 368.917C112.221 377.564 94.4257 385.977 77.0272 394.904C31.7244 418.148 36.3426 408.324 49.614 456.178C56.4067 480.671 64.4612 481.683 87.0156 464.099C150.417 414.671 213.699 365.14 277.216 315.811C291.807 304.479 307.154 293.794 322.153 282.811C320.182 280.897 318.21 278.983 316.238 277.069C254.942 307.238 193.646 337.406 129.835 368.917ZM935.874 1194.86C968.667 1197.01 1001.46 1199.22 1034.26 1201.31C1073.22 1203.8 1112.17 1206.31 1151.16 1208.51C1158.39 1208.92 1167.54 1210.63 1171.43 1203.58C1181.16 1185.92 1192.18 1168.59 1199.25 1145.77C1082.91 1158.89 969.858 1171.64 856.806 1184.39C881.565 1193.15 907.424 1190.04 935.874 1194.86ZM504.929 929.39C501.863 937.941 483.501 944.803 503.008 955.615C528.623 969.812 536.844 992.946 528.006 1017.44C524.22 1027.94 520.914 1038.55 516.423 1052C538.573 1032.42 536.791 1006.35 557.263 989.655C561.264 986.392 555.375 984.239 554.171 981.524C548.428 968.576 545.722 957.294 557.258 943.09C578.367 917.097 593.347 887.883 606.128 858.33C613.096 842.218 607.001 837.293 586.777 841.577C569.975 845.136 556.886 852.46 544.844 863.86C524.975 882.672 517.172 905.319 504.929 929.39ZM586.774 122.812C637.906 97.4213 689.038 72.0305 740.82 46.317C730.172 32.0361 714.037 28.9018 701.033 22.2026C691.886 17.491 685.024 19.3261 677.556 25.2789C632.03 61.5661 586.114 97.5276 540.477 133.722C536.557 136.831 530.264 139.621 533.65 146.609C552.763 141.638 567.526 131.381 586.774 122.812ZM355.799 919.677C376.257 918.029 396.752 914.55 417.116 923.032C418.381 913.966 417.211 908.714 408.496 905.775C397.54 902.079 391.932 893.064 394.751 885.504C399.071 873.92 391.323 868.541 384.086 859.88C382.816 866.535 390.422 871.01 383.262 876.229C376.017 874.954 373.732 869.35 370.045 864.949C360.767 853.88 351.299 842.906 339.166 833.749C335.749 831.169 328.5 827.109 327.952 827.576C317.522 836.483 310.136 828.082 301.73 823.032C301.411 838.236 307.033 850.186 313.254 862.002C323.867 882.158 341.286 898.997 355.799 919.677ZM430.648 1040C427.605 1052.61 427.073 1066.1 420.939 1077.61C411.353 1095.6 412.125 1114.27 411.212 1132.73C410.819 1140.67 410.147 1153.93 422.154 1155.89C436.535 1158.24 435.349 1144.2 440.07 1136.98C442.858 1132.71 444.218 1127.44 444.537 1122.55C447.384 1078.79 439.398 1034.41 456.503 991.451C458.46 986.535 456.854 980.945 448.938 979.623C440.037 978.136 438.825 983.667 438.037 988.816C435.578 1004.88 433.321 1020.96 430.648 1040ZM482.455 788.96C485.242 806.43 473.661 822.55 475.314 840.061C475.765 844.834 470.58 848.658 464.288 851.086C455.356 854.532 449.5 863.239 452.953 868.918C459.819 880.208 455.329 890.607 454.859 901.398C454.453 910.721 457.825 919.071 463.169 928.43C470.761 920.592 472.435 914.014 470.853 905.502C468.359 892.079 470.907 872.265 481.111 868.332C502.346 860.148 497.176 848.066 496.152 836.861C493.434 807.127 495.544 778.805 518.865 753.988C522.638 749.973 525.417 745.365 521.252 740.206C491.146 747.546 476.921 764.069 482.455 788.96ZM824.092 26.6231C819.267 28.708 814.111 30.4105 809.686 32.9573C800.453 38.2713 797.998 44.819 809.323 49.8745C849.319 67.73 889.66 85.0724 929.871 102.609C930.903 101.377 931.936 100.145 932.968 98.9132C897.258 75.0413 865.104 47.8434 824.092 26.6231ZM1481.67 562.842C1477.82 581.312 1473.97 599.781 1470.12 618.25C1487.27 590.707 1501.9 562.557 1516.45 534.382C1527.4 513.19 1525.46 509.563 1497.85 499.707C1488.81 519.171 1488.2 540.074 1481.67 562.842ZM594.917 908.608C584.515 924.255 574.114 939.903 563.516 955.845C569.151 959.261 572.501 964.468 580.382 965.078C589.512 956.698 606.421 945.431 602.115 938.452C591.379 921.053 607.493 912.906 613.395 901.125C621.404 885.136 630.983 869.426 630.192 846.947C609.12 866.573 605.489 887.487 594.917 908.608ZM411.146 1022.76C414.669 1028.28 417.533 1030.52 420.772 1022.4C433.233 991.151 415.887 956.367 376.981 939.317C382.971 968.912 402.5 993.227 411.146 1022.76ZM477.881 975.802C485.339 976.498 493.484 984.103 500.021 976.163C505.248 969.816 498.249 964.864 491.956 963.366C462.587 956.375 434.863 946.192 407.07 936.053C406.469 935.834 404.994 937.208 403.578 938.045C402.806 946.396 410.848 950.705 416.893 955.553C432.868 968.363 454.385 970.702 477.881 975.802ZM468.744 1210.89C486.709 1200.4 471.198 1190.88 465.739 1182.87C459.461 1173.65 447.986 1167.22 433.134 1170.91C427.952 1172.2 427.068 1176.33 426.919 1180.48C425.947 1207.57 433.805 1213.88 468.744 1210.89ZM239.372 751.665C240.942 761.319 221.051 760.156 224.574 771.832C246.886 771.042 262.493 762.16 270.641 746.148C277.136 733.385 286.397 720.055 277.728 703.808C265.675 710.886 267.416 725.147 258.621 726.992C241.944 730.49 242.512 739.958 239.372 751.665ZM519.637 1186.1C516.329 1191.65 514.364 1197.31 518.004 1205.78C552.932 1201.75 588.041 1197.7 623.151 1193.65C589.386 1188.47 556.359 1181.34 519.637 1186.1ZM516.906 818.678C516.449 834.246 503.62 848.768 510.84 867.688C526.474 849.922 528.987 831.929 523.879 814.105C521.745 806.659 522.076 802.036 526.671 796.108C535.232 785.064 538.612 773.271 532.282 759.802C509.026 778.853 502.781 801.005 516.906 818.678ZM68.7068 608.361C65.3503 580.42 57.5281 553.39 46.0512 525.987C28.9999 532.772 22.9157 540.314 31.7795 553.348C43.9769 571.284 55.3053 589.612 68.7068 608.361ZM517.731 1091.63C536.124 1064.31 552.065 1035.92 573.11 1009.76C559.316 1017.16 547.806 1026.52 541.789 1038.4C522.907 1075.67 500.135 1110.86 466.259 1140.85C490.173 1130.1 503.28 1111.99 517.731 1091.63ZM459.263 1080.95C460.008 1084.1 457.345 1087.75 462.172 1091.01C463.769 1057.22 482.888 1025.34 475.947 989.973C465.451 993.698 464.971 999.558 463.486 1004.89C456.734 1029.13 460.249 1053.76 459.263 1080.95ZM504.655 1036.61C512.862 1010.44 510.07 1002.47 489.643 995.61C486.81 1016.12 484.004 1036.43 480.937 1058.62C492.666 1052.72 499.382 1046.79 504.655 1036.61ZM607.556 209.069C584.901 208.395 562.977 211.885 541.291 216.921C570.219 216.699 599.661 220.828 627.217 208.969C621.79 208.969 616.363 208.969 607.556 209.069ZM1120.11 1043.42C1114.91 1046.64 1117.94 1049.72 1121.46 1051.11C1135.2 1056.54 1149.11 1062.04 1168.52 1059.71C1153.57 1049.25 1138.81 1044.93 1120.11 1043.42ZM1230.12 999.762C1223.89 1019.52 1227.36 1039.52 1227.01 1059.43C1233.72 1039.63 1232.02 1019.48 1230.12 999.762ZM651.75 909.111C650.08 913.242 650.022 917.093 654.542 922.155C657.767 905.302 666.293 891.004 659.75 875.074C657.4 885.668 655.05 896.263 651.75 909.111ZM418.481 1199.85C408.458 1203.22 407.912 1205.68 413.99 1220.59C419.083 1214.82 420.664 1208.54 418.481 1199.85ZM271.523 610.886C270.468 606.322 272.301 600.515 262.205 598.566C263.289 608.25 263.792 617.223 271.801 625.511C271.801 621.42 271.801 617.329 271.523 610.886Z" fill="#EEBF63"/>
<path d="M363.379 201.22C353.011 208.501 348.283 219.714 328.877 222.17C348.898 194.221 347.809 164.284 360.919 137.477C367.333 124.361 378.147 114.406 395.26 110.542C411.351 106.909 417.876 112.313 413.131 125.316C403.052 152.936 388.055 178.539 363.379 201.22Z" fill="#EEBF63"/>
<path d="M158.583 524.082C164.746 514.932 170.366 516.775 172.689 524.073C175.047 531.48 175.193 539.46 175.363 547.203C175.756 565.146 173.145 583.073 175.783 601.808C153.227 577.198 107.433 569.344 106.532 532.045C106.416 527.246 102.758 521.494 109.144 518.095C116.255 514.311 122.067 518.917 127.601 521.973C131.543 524.15 135.339 526.629 138.66 529.402C148.439 537.571 153.792 533.438 158.583 524.082Z" fill="#EEBF63"/>
<path d="M1216.85 984.261C1213.32 988.098 1209.75 991.999 1206.2 995.885C1177.65 978.076 1170.6 952.159 1187.62 930.663C1197.44 918.254 1205.46 918.375 1214.05 931.796C1224.39 947.967 1225.94 964.828 1216.98 983.202C1216.69 984.434 1216.8 984.325 1216.85 984.261Z" fill="#EEBF63"/>
</svg>
