<svg width="1652" height="1292" viewBox="0 0 1652 1292" fill="none" xmlns="http://www.w3.org/2000/svg">
<path d="M224.229 386.919C232.004 380.93 244.495 378.173 242.654 369.036C240.754 359.613 228.679 357.268 218.917 355.088C177.898 345.928 162.43 317.969 147.548 290.192C141.947 279.74 151.184 273.264 165.936 276.463C180.616 279.648 193.685 286.017 206.373 292.783C211.915 295.739 216.165 300.867 226.824 299.891C206.664 249.394 232.065 212.447 281.854 179.933C308.215 221.135 306.106 263.108 301.949 310.718C327.22 280.772 349.289 254.875 371.035 228.8C419.29 170.942 467.714 113.175 515.282 54.9433C525.64 42.2622 536.025 38.6184 554.488 43.3119C607.524 56.7936 661.27 68.4073 714.491 81.4244C727.011 84.4861 736.495 83.1328 746.903 76.8509C785.53 53.537 825.333 31.4896 863.361 7.55776C879.375 -2.52104 890.582 -1.87929 906.451 7.66051C1008.68 69.12 1112.16 129.21 1213.98 191.105C1246.92 211.123 1285.89 215.063 1322.58 225.14C1355.71 234.238 1389.55 241.706 1423.4 248.899C1439.86 252.397 1448.09 258.528 1446.51 273.314C1445.38 283.795 1448.83 294.584 1447.91 305.099C1446.16 324.948 1458.32 336.428 1477.33 347.226C1531.41 377.934 1583.87 410.524 1637.79 441.427C1652.46 449.836 1654.02 457.696 1648.69 470.927C1591.37 613.352 1534.97 756.024 1477.78 898.483C1471.85 913.27 1469.48 927.901 1471.82 943.019C1475.62 967.564 1473.65 992.238 1475.35 1016.8C1476.11 1027.79 1471.04 1034.38 1458.4 1036.08C1424.11 1040.71 1411.4 1059.79 1403.28 1084.89C1393.49 1115.14 1379.04 1144.35 1368.29 1174.41C1363.57 1187.6 1355.62 1191.74 1339.07 1191.68C1210.64 1191.2 1082.21 1191.52 953.772 1191.36C939.15 1191.35 925.47 1193.15 911.609 1197.27C808.44 1227.92 704.943 1257.84 601.885 1288.74C584.806 1293.86 574.725 1291.81 563.956 1279.54C542.404 1254.98 517.933 1232.12 496.234 1207.63C485.354 1195.36 472.95 1191.2 454.709 1191.16C398.466 1191.03 411.811 1199.05 392.729 1153.64C380.953 1125.62 371.823 1096.77 358.362 1069.32C345.768 1043.64 320.938 1024.07 299.704 1002.91C294.187 997.409 285.599 999.769 278.225 1000.41C263.982 1001.66 249.72 1003.91 234.536 997.85C238.745 980.842 261.606 978.538 272.127 966.087C270.102 964.301 268.632 961.745 266.566 961.37C216.045 952.193 195.874 919.828 180.272 884.937C175.448 874.15 169.475 864.57 161.029 855.724C111.262 803.597 61.9445 751.176 11.3711 699.573C-1.74232 686.193 -3.74675 676.68 9.48444 661.768C46.4897 620.062 80.1099 576.367 116.822 534.48C131.458 517.781 134.525 502.962 125.969 483.366C109.55 445.759 108.844 455.668 146.178 432.788C171.42 417.319 197.403 402.652 224.229 386.919ZM1440.12 640.911C1438.48 584.394 1437.93 527.836 1434.81 471.373C1432.74 433.887 1431.51 396.42 1431.01 358.921C1430.84 345.719 1425.34 336.015 1411.31 327.934C1355.79 295.958 1300.99 263.148 1246.14 230.398C1235.46 224.021 1224.29 219.254 1211.5 216.243C1065.18 181.803 918.706 147.783 772.905 111.936C745.803 105.273 727.004 109.247 705.234 122.308C576.933 199.283 447.582 275.094 318.96 351.716C299.697 363.191 277.724 372.409 263.674 388.977C232.435 425.816 201.396 462.769 170.609 499.86C157.194 516.023 168.183 554.464 189.733 566.231C192.218 562.229 195.153 558.466 196.996 554.376C208.272 529.359 230.501 511.043 253.208 493.046C257.548 489.606 262.59 485.414 269.354 487.401C276.784 489.582 275.107 495.635 275.337 500.497C276.133 517.378 272.957 533.905 269.31 550.488C261.611 585.497 239.531 616.539 228.752 650.699C219.952 678.588 232.248 701.548 249.436 724.769C277.449 705.598 277.449 705.597 308.34 722.363C308.912 722.673 309.516 722.957 310.027 723.325C319.34 730.03 325.481 728.845 332.873 720.074C349.953 699.809 369.264 699.219 390.365 717.434C407.44 732.174 420.378 749.402 433.064 766.729C436.57 771.517 439.909 777.764 448.359 775.705C474.998 769.215 471.827 785.429 471.21 796.71C469.918 820.356 462.337 843.039 449.829 864.558C446.746 869.863 441.075 874.735 443.43 881.37C450.313 885.726 458.518 877.487 466.594 884.914C467.699 893.221 460.057 900.001 453.922 907.056C440.432 922.568 425.668 937.398 413.153 953.404C398.314 972.384 403.058 989.328 425.291 1004.06C435.114 978.396 444.651 952.766 454.808 927.3C458.83 917.215 462.702 903.307 474.446 900.948C496.818 896.454 498.926 882.174 505.861 869.415C511.982 858.152 518.441 847.018 527.568 837.071C547.83 814.988 559.916 815.034 577.783 838.951C595.733 862.981 606.868 889.553 616.963 916.344C618.914 921.521 617.824 928.377 627.119 929.177C638.745 930.177 642.761 937.373 647.129 944.341C660.815 966.173 667.3 989.399 667.139 1013.91C667.027 1030.9 667.117 1047.89 667.117 1064.78C674.33 1064.98 676.461 1061.74 679.311 1059.51C693.771 1048.2 709.64 1038.5 727.475 1031C732.958 1028.69 738.934 1025.21 744.757 1028.37C752.342 1032.49 747.886 1038.77 745.781 1043.67C741.03 1054.73 735.206 1065.49 729.297 1077.42C745.077 1071.45 750.571 1061.83 751.002 1049.77C751.745 1028.96 764.985 1013.96 784.682 1002.18C790.001 999.001 796.03 994 803.147 997.455C811.151 1001.34 811.99 1008.58 810.378 1015.45C804.561 1040.26 790.233 1060.56 762.293 1073.09C751.78 1077.81 741.329 1082.39 733.932 1091.23C747.249 1095.28 761.717 1091.5 773.366 1101.19C762.761 1114.79 747.476 1122.52 730.197 1128.08C702.835 1136.88 674.153 1138.4 645.137 1137.71C632.76 1137.42 621.048 1138.5 612.428 1146.09C633.675 1169.48 660.392 1177.25 694.996 1176.33C766.352 1174.45 837.836 1175.73 909.267 1175.89C919.037 1175.91 928.249 1174.73 937.445 1172.03C1085.93 1128.38 1234.43 1084.76 1383.03 1041.39C1396.42 1037.48 1404.46 1031.4 1408.71 1019.86C1420.53 987.72 1433.67 955.898 1446.63 924.042C1450.58 914.32 1452.71 904.58 1451.54 894.367C1447.62 860.318 1447.56 826.16 1447.73 792.017C1447.8 777.58 1438.94 768.757 1423.31 764.222C1413.69 761.429 1403.47 759.886 1393.4 758.265C1367.81 754.144 1348.68 741.88 1332.11 726.365C1328.57 723.044 1324.15 719.343 1327.04 714.488C1329.74 709.959 1335.62 709.36 1341.25 709.114C1360.29 708.285 1379.27 709.131 1400.38 711.945C1393.54 693 1381.45 677.33 1379.29 659.556C1377.2 642.409 1373.39 624.662 1385.75 605.57C1413.88 627.714 1425.87 654.71 1442.33 682.071C1441.54 667.604 1440.9 655.892 1440.12 640.911ZM1478.9 368.209C1470.13 363.658 1462.8 356.87 1449.8 354.617C1456.44 523.325 1463.02 690.182 1469.59 857.038C1474.16 853.864 1476.09 850.386 1477.53 846.776C1527.12 722.368 1576.51 597.906 1626.46 473.595C1630.98 462.349 1627.05 455.92 1616.16 449.547C1571 423.122 1526.2 396.3 1478.9 368.209ZM107.274 575.439C82.7392 605.099 58.9309 635.185 33.3187 664.213C22.8356 676.094 24.5135 684.609 34.8778 695.265C75.3523 736.879 115.124 778.947 155.269 820.774C158.499 824.14 161.168 828.564 169.445 828.283C179.265 813.438 191.91 798.749 198.911 782.449C205.418 767.299 208.773 751.112 216.946 736.277C221.185 728.583 220.566 721.148 217.492 713.454C198.405 665.687 180.016 617.725 159.846 570.264C155.255 559.461 155.597 545.844 141.38 537.849C127.533 548.65 119.567 561.852 107.274 575.439ZM662.365 127.451C675.281 117.915 691.845 111.836 702.932 100.649C697.385 93.9301 689.64 93.0951 682.48 91.3764C642.984 81.894 603.176 73.1833 564.117 62.6264C545.84 57.6868 535.668 60.9444 525.02 73.9378C465.882 146.101 405.515 217.594 346.003 289.556C336.323 301.26 324.821 312.299 321.845 328.466C434.535 261.903 547.224 195.339 662.365 127.451ZM960.543 61.5416C952.232 56.5993 943.98 51.5887 935.599 46.7258C883.802 16.6697 883.515 16.3785 833.009 47.1879C810.346 61.0129 785.196 72.4541 762.405 92.5586C900.293 125.279 1034.68 157.168 1169.06 189.057C1169.6 188.022 1170.14 186.986 1170.68 185.951C1101.42 144.958 1032.16 103.965 960.543 61.5416ZM1131.96 1132.29C1090.14 1144.77 1048.32 1157.25 1006.5 1169.73C1016.47 1174.23 1025.26 1175.68 1034.05 1175.69C1132.16 1175.84 1230.28 1175.59 1328.39 1175.97C1341.8 1176.02 1347.94 1171.9 1351.77 1161.8C1363.53 1130.84 1376.29 1100.15 1388.54 1069.32C1389.94 1065.78 1392.57 1062.05 1387.73 1057.23C1303.79 1081.86 1219.39 1106.62 1131.96 1132.29ZM815.026 1191.5C795.829 1191.48 776.605 1190.91 757.441 1191.55C716.696 1192.91 675.366 1186.73 635.329 1198.35C626.455 1200.93 616.334 1200.58 607.103 1197.18C584.184 1188.73 559.901 1191.42 536.13 1192.25C519.034 1192.85 516.263 1198.88 526.804 1210.62C540.561 1225.95 556.58 1240.02 569.081 1255.96C581.195 1271.41 593.86 1273.92 614.772 1267.36C673.576 1248.92 733.405 1232.66 792.448 1214.71C810.305 1209.28 830.041 1206.52 847.288 1195.2C836.466 1191.09 827.487 1191.86 815.026 1191.5ZM325.011 847.124C323.833 861.116 317.552 852.316 314.266 848.348C304.277 836.288 295.023 823.741 282.267 813.481C275.054 807.678 268.349 800.015 253.662 800.79C265.443 832.013 295.044 853.798 306.885 882.988C288.59 875.64 284.083 860.08 273.447 848.304C262.427 836.102 255.488 821.468 240.885 809.713C232.812 854.717 302.397 928.089 360.351 936.574C361.149 911.017 340.008 891.404 331.329 867.172C347.234 868.922 347.577 882.13 358.376 885.899C359.748 859.324 322.456 816.298 286.538 803.86C301.43 817.227 313.607 830.601 325.011 847.124ZM516.555 883.013C512.879 897.959 512.568 913.003 514.62 928.11C515.786 936.69 518.5 943.71 532.283 941.61C544.202 939.794 549.887 944.873 552.408 953.978C553.616 958.342 552.679 964.54 561.083 965.562C586.562 942.11 575.642 871.727 546.744 839.176C530.812 850.252 523.213 864.797 516.555 883.013ZM400.256 858.214C391.113 879.516 387.986 901.242 392.64 924.169C431.443 890.347 466.18 815.034 453.771 790.571C429.197 808.854 412.413 830.713 400.256 858.214ZM593.634 992.56C579.563 1031.9 588.108 1071.54 589.189 1113.27C611.471 1090.3 630.681 976.219 616.371 954.309C604.388 964.846 600.078 977.671 593.634 992.56ZM1403.98 261.325C1369.28 253.347 1334.57 245.37 1299.87 237.393C1299.28 238.341 1298.7 239.289 1298.11 240.236C1339.71 264.92 1381.31 289.603 1427.19 316.826C1427.19 302.986 1426.3 293.64 1427.4 284.452C1428.94 271.517 1422.69 264.273 1403.98 261.325ZM622.14 1078.19C618.53 1088.21 614.921 1098.23 610.314 1111.03C655.096 1079.33 669.121 989.146 635.291 962.341C634.296 966.594 633.168 970.253 632.612 973.968C627.572 1007.66 631.138 1041.91 622.14 1078.19ZM260.484 917.679C281.032 935.372 303.583 949.625 336.681 947.319C292.651 916.878 248.91 887.086 230.547 840.114C223.559 869.854 237.972 893.641 260.484 917.679ZM505.013 1018.85C504.733 1051.85 511.166 1084.16 518.387 1119.44C543.402 1069.59 509.769 1025.17 513.336 979.198C503.595 990.737 502.629 1003.1 505.013 1018.85ZM549.7 1084.84C556.15 1044.58 539.855 1006.32 533.872 967.041C515.315 1017.54 554.274 1066.19 542.933 1116.77C545.049 1107.06 547.165 1097.35 549.7 1084.84ZM503.149 1092.98C499.165 1070.29 495.18 1047.6 490.543 1021.2C470.195 1060.44 474.467 1103.31 503.413 1133.23C503.413 1120.62 503.413 1108.33 503.149 1092.98ZM150.835 481.317C154.258 482.961 158.008 482.672 160.078 480.288C177.729 459.96 195.11 439.477 212.571 419.039C192.029 427.072 175.402 437.828 157.559 447.017C140.037 456.04 136.417 466.222 150.835 481.317ZM403.931 1121.34C407.888 1133.07 411.349 1144.94 415.915 1156.52C423.502 1175.76 430.718 1178.07 457.622 1169.05C442.17 1151.15 427.031 1133.79 408.692 1118.35C407.15 1117.05 404.926 1117.4 403.931 1121.34ZM235.449 256.483C235.841 274.569 238.273 292.227 251.144 307.876C257.65 281.844 258.456 256.198 250.615 228.536C239.558 236.421 239.58 245.768 235.449 256.483ZM419.553 1076.83C410.875 1066.15 402.197 1055.47 393.519 1044.79C401.295 1083.59 431.274 1110.21 464.225 1135.23C454.656 1113.98 437.658 1096.55 419.553 1076.83ZM277.321 247.709C277.06 233.135 280.891 218.315 274.756 203.316C260.605 209.81 257.661 217.474 261.785 229.249C265.683 240.376 266.394 252.408 267.014 264.095C267.839 279.636 267.218 295.229 267.218 310.799C268.998 310.791 270.777 310.782 272.557 310.774C274.105 290.837 275.653 270.899 277.321 247.709ZM458.838 1029.07C460.125 1031.48 459.961 1034.79 465.722 1035.25C484.02 1007.62 466.828 980.032 465.963 952.473C452.751 976.601 457.274 1001.73 458.838 1029.07ZM375.99 1004.3C377.755 998.457 388.223 1003.07 389.903 996.848C385.047 988.145 381.812 978.291 366.556 979.037C360.434 979.336 351.97 979.617 351.27 985.137C349.791 996.802 355.249 1007.33 363.985 1016.76C371.176 1014.61 371.912 1009.7 375.99 1004.3ZM1436.53 1003.23C1434.55 1010.4 1427.4 1016.94 1431.46 1025.14C1459.48 1020.71 1462.81 1010.54 1450.41 968.177C1445.85 979.644 1441.66 990.198 1436.53 1003.23ZM388.395 766.64C387.229 755.284 380.702 745.622 374.069 735.937C368.177 727.334 357.904 724.006 348.429 727.556C338.832 731.153 338.806 739.746 344.27 748.49C366.334 743.612 375.608 757.374 388.395 766.64ZM708.679 1072.02C712.854 1064.62 723.437 1059.95 724.742 1047.86C700.495 1062.13 685.818 1079.21 670.282 1095.66C686.603 1092.2 706.649 1093.03 708.679 1072.02ZM206.652 572.568C205.514 580.977 200.837 589.286 205.959 602.824C217.508 580.977 222.805 562.5 226.209 543.456C213.92 549.834 210.881 559.991 206.652 572.568ZM378.579 874.534C393.733 856.634 396.682 834.516 410.643 816.203C386.384 830.353 379.046 850.666 378.579 874.534ZM1426.12 719.727C1427.48 720.784 1428.8 722.614 1430.48 720.047C1430.75 719.643 1430.57 718.908 1430.31 718.431C1417.86 695.791 1405.38 673.162 1390.55 646.266C1395.21 675.823 1409.85 697.075 1426.12 719.727ZM1412.09 664.759C1420.43 680.001 1428.76 695.242 1437.1 710.484C1430.75 683.969 1417.89 659.861 1398.37 638.12C1402.53 646.235 1406.68 654.349 1412.09 664.759ZM558.722 1101.05C556.18 1110.07 553.639 1119.1 550.34 1130.81C570.108 1115.53 573.267 1099.56 563.604 1077.3C562.347 1084.26 561.058 1091.38 558.722 1101.05ZM410.303 789.858C408.155 791.574 407.254 793.507 408.736 795.853C431.488 788.267 431.633 778.844 409.063 760.764C401.213 765.008 402.632 769.904 408.11 774.488C413.189 778.738 417.911 782.635 410.303 789.858ZM211.087 838.852C210.334 833.971 210.516 828.493 200.31 828.589C199.205 841.523 200.057 853.662 211.167 867.731C211.167 856.703 211.167 849.061 211.087 838.852ZM728.514 1117.49C730.955 1115.5 736.528 1116.28 736.402 1110.78C722.624 1114.43 708.404 1115.48 693.218 1124.78C707.155 1123.13 717.036 1122.42 728.514 1117.49ZM174.325 305.594C178.96 314.13 187.414 317.355 200.828 317.802C193.695 308.806 184.927 303.883 175.43 300.272C170.643 298.452 172.972 302.305 174.325 305.594Z" fill="#EEBF63"/>
<path d="M200.4 173.807C195.887 135.64 218.998 99.8569 252.929 93.8247C258.433 135.103 240.09 170.583 216.924 206.596C202.134 198.363 205.813 185.286 200.4 173.807Z" fill="#EEBF63"/>
<path d="M140.556 203.655C140.385 200.077 140.09 197.847 140.231 195.635C140.613 189.671 138.847 182.517 147.399 179.57C155.823 176.667 161.309 182.184 166.688 186.334C193.384 206.929 203.702 233.312 208.022 262.127C179.472 264.307 146.949 236.172 140.556 203.655Z" fill="#EEBF63"/>
<path d="M319.285 643.809C327.171 621.427 335.869 600.85 351.421 582.688C355.645 577.756 358.424 570.892 367.585 571.319C377.319 571.772 381.019 578.667 384.161 584.737C396.228 608.05 392.439 630.088 371.931 648.874C354.059 665.245 328.54 676.105 319.69 699.644C310.95 680.613 314.017 662.891 319.285 643.809ZM351.794 620.719C354.471 616.665 357.518 612.634 352.575 605.01C345.664 618.431 340.067 629.302 334.469 640.173C335.56 640.559 336.651 640.944 337.743 641.33C341.965 635.129 346.187 628.928 351.794 620.719Z" fill="#EEBF63"/>
</svg>
