<svg width="1579" height="1267" viewBox="0 0 1579 1267" fill="none" xmlns="http://www.w3.org/2000/svg">
<path d="M1484.22 699.324C1463.26 734.323 1473.8 769.934 1475.55 804.658C1478.41 861.05 1484.09 917.351 1489.07 973.662C1490.01 984.28 1481.62 986.977 1472.48 989.908C1439.91 1000.36 1407.58 1011.36 1374.64 1020.99C1358.81 1025.61 1350.49 1033.34 1345.59 1046.35C1329.89 1088.06 1311.73 1129.17 1296.8 1171.05C1290.61 1188.39 1280.19 1192.92 1258.86 1192.79C1126.99 1191.99 995.107 1192.49 863.23 1192.34C850.615 1192.32 838.941 1194.09 827.222 1197.91C759.022 1220.15 690.477 1241.69 622.503 1264.38C607.637 1269.34 599.039 1267.33 589.488 1257.25C572.297 1239.1 552.974 1222.29 535.546 1204.28C526.971 1195.42 517.24 1191.93 503.691 1192.61C490.011 1193.29 476.203 1193.06 462.501 1192.46C448.501 1191.85 441.74 1195.82 443.838 1207.94C448.753 1236.34 427.881 1251.37 400.271 1262.48C384.076 1269 376.303 1265.55 373.396 1250.64C372.331 1245.17 372.841 1239.49 372.832 1233.9C372.824 1229.1 377.289 1224.29 372.762 1219.32C365.05 1218.36 360.216 1223.07 354.385 1225.64C341.95 1231.12 328.843 1234.11 314.759 1232.18C303.619 1230.65 292.895 1227.29 288.484 1217.99C283.784 1208.08 292.842 1200.9 301.061 1197.18C329.554 1184.27 326.107 1167.46 316.311 1146.48C308.952 1130.72 300.203 1118.68 282.365 1108.77C222.419 1075.46 201.073 1011.86 229.924 957.241C234.417 948.735 232.794 941.789 230.941 933.283C221.551 890.17 187.08 859.63 154.503 827.901C106.022 780.682 58.1862 733.018 9.41117 686.002C-1.05754 675.911 -2.91764 668.011 6.57637 656.489C29.1527 629.091 49.7952 600.639 71.8996 572.974C78.7836 564.358 81.1118 556.914 76.5357 546.575C65.3745 521.356 56.8147 495.376 45.8529 470.092C40.6389 458.067 43.429 450.718 56.3054 443.215C119.993 406.106 182.667 367.831 246.67 331.094C263.198 321.608 266.483 312.203 261.157 297.147C252.916 273.851 239.23 252.522 228.198 230.248C218.801 211.276 217.912 192.448 227.678 173.203C233.301 162.12 241.093 160.53 253.357 166.06C272.588 174.731 284.901 188.629 296.067 205.899C309.42 191.181 320.451 178.31 336.708 169.637C343.382 166.076 349.471 159.33 358.454 162.818C366.442 165.92 364.314 173.458 365.256 179.403C365.681 182.084 366.086 184.768 366.833 189.605C383.884 177 392.11 161.493 403.078 147.903C433.636 110.041 463.329 71.6913 492.157 32.9381C501.754 20.0376 510.985 15.5125 530.175 19.9797C582.267 32.1063 635.126 42.0275 687.562 53.1956C701.953 56.2608 713.787 54.6303 725.873 46.9678C748.625 32.5437 772.861 19.6797 795.716 5.35676C806.831 -1.60924 815.072 -1.53274 826.536 5.3625C887.866 42.2505 949.928 78.3279 1011.43 115.028C1022.21 121.462 1033.56 125.79 1046.42 128.459C1166.03 153.304 1285.46 178.728 1405.27 202.935C1425.15 206.953 1431.69 214.795 1432.53 230.439C1434.74 271.782 1438.93 313.055 1441.19 354.397C1441.81 365.618 1446.3 372.996 1457.54 379.446C1493.47 400.068 1528.29 421.995 1564.54 442.226C1579.21 450.416 1581.16 458.267 1575.71 471.563C1544.79 546.895 1515 622.533 1484.22 699.324ZM1113.51 196.225C1103.49 190.328 1093.74 184.095 1083.4 178.599C1050.93 161.345 1022.76 139.136 982.534 131.515C902.397 116.332 822.846 99.013 743.42 81.4735C722.357 76.8223 706.252 78.8117 688.34 89.5604C558.391 167.537 427.695 244.684 297.344 322.215C292.458 325.121 287.765 328.796 284.541 332.921C227.37 406.098 170.545 479.454 113.311 552.597C107.162 560.454 106.554 567.552 110.101 576.233C126.149 615.505 141.427 654.987 157.337 694.298C161.079 703.543 166.198 712.418 171.564 723.239C178.315 707.085 177.378 690.821 195.19 681.331C208.044 688.866 203.86 702.481 213.566 711.486C219.614 703.075 224.45 695.718 230.065 688.779C233.439 684.611 237.934 680.221 245.007 681.49C252.298 682.798 253.303 688.428 254.046 693.422C257.516 716.757 260.658 740.016 255.667 763.61C253.937 771.785 250.17 781.403 261.394 789.344C266.035 787.494 270.836 785.608 275.607 783.672C284.692 779.985 294.879 773.177 303.942 779.674C312.355 785.706 307.511 795.252 305.082 803.44C298.284 826.351 276.583 839.696 256.578 854.112C231.024 872.528 238.189 898.265 272.685 908.475C278.122 895.329 282.248 881.692 289.318 869.159C298.819 852.317 293.302 829.426 311.336 817.79C330.442 805.461 330.767 790.184 335.387 774.292C340.847 755.51 347.939 736.837 369.095 724.359C384.257 734.596 380.044 751.554 393.349 762.419C400.053 756.026 405.761 750.578 411.477 745.135C422.817 734.334 433.483 735.258 443.238 746.551C446.389 750.199 449.404 754.025 451.649 758.076C467.761 787.143 498.985 808.296 512.329 840.801C525.574 829.628 538.206 828.626 546.038 839.399C562.276 861.732 583.379 881.896 589.294 909.02C592.99 925.962 589.755 943.365 595.588 961.865C609.377 955.146 621.035 948.38 633.789 943.53C649.398 937.594 659.691 942.401 656.042 954.306C647.466 982.283 653.746 1010.09 654.897 1037.85C656.366 1073.24 641 1101.02 606.532 1122.24C602.044 1125 595.701 1126.98 594.717 1133.33C620.619 1133.37 646.047 1132.59 671.135 1136.57C677.538 1137.59 686.181 1135.84 687.332 1143.68C688.332 1150.5 681.175 1153.12 675.133 1155.74C662.009 1161.43 648.756 1166.91 632.595 1173.73C642.831 1175.01 649.547 1176.55 656.273 1176.58C714.649 1176.8 773.027 1176.85 831.403 1176.62C837.36 1176.6 843.571 1174.96 849.216 1173.14C1006.28 1122.63 1163.3 1072 1320.3 1021.37C1328.01 1018.88 1336.12 1016.4 1339.01 1009.25C1351.87 977.372 1364.98 945.55 1376.87 913.432C1380.25 904.294 1379.8 893.365 1369.32 887.068C1359 880.87 1352.06 890.671 1344.4 894.178C1321.44 904.697 1297.7 910.944 1267.01 909.295C1278 883.267 1300.78 874.589 1327.01 868.666C1292.71 865.575 1258.28 864.424 1238.64 833.86C1284.66 822.158 1324.14 832.051 1364.72 849.145C1350.78 812.606 1346.33 779.522 1376.63 745.229C1395.19 776.18 1400.97 805.896 1407.31 835.774C1422.04 802.205 1435.17 768.688 1448.4 735.197C1450.35 730.245 1449.78 725.37 1449.38 720.294C1444.42 657.228 1439.83 594.144 1434.91 531.076C1431.38 485.885 1427.07 440.73 1424.07 395.517C1423.28 383.612 1417.26 376.398 1405.69 369.582C1308.83 312.555 1212.4 255.048 1113.51 196.225ZM1184.79 1082.69C1091.72 1112.73 998.655 1142.77 905.587 1172.8C1021.34 1176.77 1135.97 1176.52 1250.59 1177.05C1267.17 1177.12 1275 1173 1279.61 1159.73C1288.56 1133.91 1300.41 1108.78 1310.16 1083.13C1315.54 1068.99 1323.6 1055.33 1325.77 1037.26C1277.99 1052.66 1232.87 1067.21 1184.79 1082.69ZM640.633 97.5568C645.646 94.611 650.955 91.942 655.602 88.6518C662.015 84.1113 673.568 81.5701 671.203 72.7705C668.952 64.3945 657.436 64.3666 649.247 62.558C613.5 54.6633 577.264 48.1506 541.816 39.4796C522.508 34.757 511.953 39.0684 501.582 52.6907C449.078 121.657 395.47 190.065 342.327 258.708C337.812 264.54 333.868 270.667 329.659 276.656C330.944 277.491 332.228 278.327 333.512 279.162C435.078 219.084 536.643 159.007 640.633 97.5568ZM1328.64 302.875C1357.73 320.054 1386.81 337.233 1418.43 355.908C1420.54 315.778 1413.63 279.69 1413.02 243.44C1412.71 225.332 1400.75 218.816 1381.51 214.922C1306.94 199.834 1232.6 183.98 1158.13 168.569C1133.67 163.507 1109.06 158.923 1084.52 154.121C1084.04 155.275 1083.57 156.428 1083.09 157.582C1164.15 205.534 1245.2 253.486 1328.64 302.875ZM1473.98 409.819C1465.23 406.228 1458.99 398.427 1444.66 398.424C1452.02 493.079 1459.29 586.671 1466.56 680.264C1498.26 610.561 1525.99 540.467 1553.74 470.382C1557.08 461.961 1552.19 456.82 1544.19 452.104C1521.39 438.685 1498.93 424.898 1473.98 409.819ZM422.265 1097.44C434.195 1119.05 434.144 1143.9 448.634 1166.59C497.373 1148.68 499.142 1112.05 506.118 1078.93C516.317 1077.11 513.505 1086.3 520.879 1087.31C526.546 1056.23 526.859 1025.79 517.609 994.51C510.68 999.362 518.173 1007.11 506.926 1010.59C497.752 978.686 499.842 944.549 478.595 914.526C459.749 929.466 448.279 952.676 443.586 974.532C434.986 1014.58 433.41 1055.46 422.265 1097.44ZM55.9683 625.671C47.938 636.066 40.3284 646.698 31.7528 656.785C24.0073 665.895 24.3807 672.988 33.681 681.871C66.134 712.868 97.3852 744.699 129.347 776.041C146.99 793.342 163.005 811.888 188.975 830.185C155.307 745.879 125.88 665.778 89.8198 583.376C76.946 599.467 67.2757 611.555 55.9683 625.671ZM358.772 1019.37C334.261 957.023 320.099 893.268 320.126 827.392C303.639 848.627 305.672 872.582 304.576 895.407C301.72 954.907 318.529 1010.67 358.436 1061.28C362.95 1067.01 371.07 1072.79 365.165 1083.53C312.02 1029.52 295.751 967.965 292.617 902.499C287.987 911.487 285.374 920.382 283.206 929.657C275.304 963.451 302.363 995.771 288.83 1029.63C288.505 1030.44 289.842 1031.65 290.27 1032.71C302.797 1063.73 364.09 1118.27 401.918 1132.34C398.034 1120.44 381.006 1113.08 381.229 1101.3C388.424 1094.08 389.07 1104.35 393.358 1101.91C381.922 1074.75 370.807 1048.35 358.772 1019.37ZM357.539 980.753C370.337 1019.85 385.334 1058.32 406.559 1099.04C407.567 1066.6 411.424 1038.29 419.386 1010.61C425.289 990.076 423.351 971.287 412.341 952.202C393.363 919.307 375.893 885.836 357.348 852.772C352.063 843.349 347.51 833.286 334.592 824.166C328.598 878.51 339.523 928.592 357.539 980.753ZM1433.04 827.207C1409.79 885.869 1386.54 944.532 1361.35 1008.11C1394.31 997.47 1420.55 988.176 1447.52 980.604C1464.12 975.942 1469.31 968.154 1468.11 954.358C1464.46 912.56 1462.21 870.683 1458.89 828.864C1457.8 815.108 1455.13 801.436 1453.18 787.725C1452 787.57 1450.81 787.416 1449.63 787.261C1444.36 799.712 1439.1 812.164 1433.04 827.207ZM447.241 882.923C457.45 886.043 462.985 900.299 467.216 899.324C491.847 893.645 494.934 911.18 506.217 921.571C509.042 901.056 491.801 883.662 495.184 860.201C512.024 874.803 509.711 890.95 520.179 902.5C507.226 858.111 491.729 814.727 448.025 782.654C451.168 807.964 467.658 831.186 461.196 857.334C446.61 834.973 448.571 808.148 431.766 785.929C398.65 808.458 387.269 890.975 411.475 919.108C410.954 898.834 405.033 878.131 418.562 858.608C424.764 885.099 417.822 912.675 430.126 941.855C441.757 920.849 439.287 901.91 447.241 882.923ZM90.2168 524.79C93.179 528.145 92.8154 533.689 101.569 534.843C145.59 478.171 189.893 421.135 234.196 364.1C232.895 363.179 231.594 362.258 230.293 361.337C178.891 392.018 127.594 422.817 75.9816 453.262C67.396 458.326 64.925 463.302 68.6374 471.626C76.1288 488.423 82.4938 505.553 90.2168 524.79ZM820.852 81.3868C863.424 88.7851 904.724 101.335 949.374 102.936C906.916 74.6792 863.231 48.877 819.444 23.1898C815.525 20.8908 810.689 19.1042 805.986 21.5742C783.785 33.2321 761.503 44.8423 741.346 61.6863C766.903 72.4202 793.162 74.2331 820.852 81.3868ZM634.514 1192.42C609.709 1193.51 584.411 1189.76 557.393 1197.09C573.366 1212.99 587.974 1227.54 602.607 1242.08C607.383 1246.82 613.404 1249.22 620.746 1246.86C673.251 1230.03 725.694 1213.07 778.157 1196.15C777.855 1194.91 777.553 1193.67 777.25 1192.43C731.042 1192.43 684.834 1192.43 634.514 1192.42ZM565.169 1064.44C585.548 1006.03 587.615 947.567 568.473 884.85C541.949 904.139 530.089 923.543 536.106 948.273C539.564 962.49 545.284 976.338 549.872 990.376C557.556 1013.88 561.471 1037.41 552.971 1061.51C548.235 1074.94 544.993 1088.71 539.681 1107.19C552.218 1091.73 558.797 1079.59 565.169 1064.44ZM583.302 1054.65C577.77 1073.58 567.791 1091.22 557.938 1108.88C582.517 1083.49 640.096 968.687 635.692 955.285C610.437 966.232 589.547 977.867 591.516 1005.64C592.596 1020.88 586.633 1036.44 583.302 1054.65ZM593.265 1117.18C633.613 1093.42 651.556 1061.35 638.606 1033.66C604.687 1058.28 605.128 1098.41 570.657 1123.41C581.787 1125.06 585.701 1120.39 593.265 1117.18ZM364.879 1165.28C373.934 1162.39 385.356 1165.09 395.113 1156.95C375.336 1146.85 357.236 1137.87 332.862 1133.26C336.885 1143.48 340.883 1151.2 342.864 1159.26C345.466 1169.84 352.324 1169.95 364.879 1165.28ZM428.619 753.777C399.401 773.179 389.627 800.954 379.097 828.434C395.019 807.225 406.936 784.033 434.832 770.052C445.066 764.923 437.127 758.711 428.619 753.777ZM326.959 1109C295.802 1092.25 264.979 1075.21 245.117 1048.18C261.382 1084.57 285.587 1102.19 345.376 1120.14C337.319 1115.21 333.257 1112.73 326.959 1109ZM315.676 228.741C315.165 236.468 310.11 244.164 314.741 255.733C327.711 231.896 337.501 211.351 338.622 186.215C321.735 196.241 321.735 196.241 315.676 228.741ZM241.607 1004.61C243.454 1028.31 255.59 1047.66 278.618 1062.54C261.928 1037.61 247.911 1011.98 241.477 983.66C241.477 989.704 241.477 995.749 241.607 1004.61ZM412.204 1238.79C411.065 1229.39 409.926 1219.99 408.377 1207.21C393.128 1231.33 392.244 1235.64 398.213 1249.26C405.31 1249.49 409.389 1246.29 412.204 1238.79ZM374.044 792.209C383.069 778.937 382.195 766.348 370.35 753.291C363.981 766.173 365.493 778.614 364.7 790.777C364.416 795.145 365.887 799.56 374.044 792.209ZM539.51 997.812C536.731 993.887 538.336 988.24 529.291 982.853C539.178 1009.9 538.959 1034.67 539.552 1059.42C547.328 1039.75 546.919 1020.06 539.51 997.812ZM261.297 211.806C255.641 202.174 252.67 191.175 239.318 182.068C234.511 203.806 257.31 212.929 261.242 230.527C266.899 223.252 263.847 218.653 261.297 211.806ZM350.119 1195.6C337.445 1202.11 322.048 1205.94 314.136 1218.53C334.363 1221.28 346.997 1212.92 350.119 1195.6ZM1316.69 854.35C1302.17 843.037 1284.59 842.648 1263.22 843.628C1279.76 856.691 1297.35 855.566 1316.69 854.35ZM1380.9 840.513C1382.22 844.202 1383.55 847.891 1385.85 854.282C1386.34 829.408 1379.07 808.336 1371.92 787.207C1374.73 804.132 1377.55 821.058 1380.9 840.513ZM263.04 1013.6C264.225 1014.86 265.41 1016.12 266.596 1017.38C267.015 1017.04 267.835 1016.66 267.797 1016.36C265.598 998.759 263.329 981.163 260.487 959.064C252.565 980.12 257.72 995.819 263.04 1013.6ZM272.473 208.442C276.993 219.347 281.513 230.252 286.033 241.156C290.02 224.043 281.874 210.634 268.195 198.889C269.287 201.394 270.379 203.899 272.473 208.442ZM432.819 1213.67C431.785 1208.54 431.106 1203.27 424.531 1197.34C423.187 1210.01 415.895 1220.29 427.634 1231.91C429.779 1225.43 431.333 1220.73 432.819 1213.67ZM587.984 1169.94C600.001 1166.94 613.131 1166.4 628.986 1157.88C602.954 1163.08 582.709 1167.13 558.432 1171.98C570.735 1174.54 577.511 1170.9 587.984 1169.94ZM611.267 1151.99C611.539 1151.55 612.158 1150.97 611.998 1150.69C611.775 1150.31 610.883 1149.84 610.424 1149.93C590.082 1153.74 569.756 1157.61 549.428 1161.47C549.67 1162.32 549.911 1163.18 550.152 1164.03C569.925 1160.25 589.697 1156.48 611.267 1151.99ZM346.841 785.453C345.331 791.403 344.279 797.305 349.808 802.559C351.625 790.226 353.441 777.893 355.258 765.56C354.364 765.447 353.469 765.335 352.575 765.223C350.86 771.129 349.146 777.036 346.841 785.453Z" fill="#EEBF63"/>
<path d="M225.37 668.592C220.972 674.633 223.574 682.116 215.663 685.914C213.492 684.679 210.517 683.753 210.545 682.891C211.572 650.987 196.783 618.624 214.483 587.201C221.898 574.037 229.981 561.352 248.307 555.261C258.148 563.862 255.165 573.348 253.34 581.464C249.765 597.369 251.202 608.799 278.748 606.711C272.201 635.016 246.702 649.909 225.37 668.592Z" fill="#EEBF63"/>
</svg>
