<svg width="1711" height="1332" viewBox="0 0 1711 1332" fill="none" xmlns="http://www.w3.org/2000/svg">
<path d="M1613.45 531.025C1626.64 542.82 1641.45 552.22 1650.47 564.927C1664.85 585.174 1680.82 602.732 1703.42 616.133C1714.47 622.685 1712.5 633.162 1703.53 642.464C1688.74 657.807 1669.8 663.493 1648.35 661.298C1628.05 659.221 1616.5 666.514 1608.11 682.705C1593.61 710.703 1577.33 737.954 1561.92 765.577C1546.82 792.663 1546.89 792.695 1572.49 808.499C1567.52 819.486 1555.66 818.488 1545.96 820.063C1536.34 821.628 1528.48 823.937 1523.7 832.557C1497.49 879.901 1470.95 927.099 1444.61 974.389C1443.81 975.837 1444.03 977.746 1443.72 979.725C1453.6 982.65 1462.06 978.139 1470.95 976.893C1476.5 976.114 1482.73 972.09 1487.63 977.414C1491.88 982.04 1490.54 987.783 1487.93 992.635C1470.4 1025.12 1449.25 1054.9 1412.73 1073.22C1404.26 1077.46 1394.3 1080.24 1389.46 1088.95C1412.42 1116.36 1414.86 1149.94 1402.51 1177.34C1390.34 1204.35 1356.63 1217.53 1321.62 1222.58C1317.18 1208.15 1331.17 1198.76 1327.15 1183.11C1312.49 1208.34 1299.48 1230.75 1286.44 1253.14C1282.8 1259.38 1287.64 1262.77 1291.49 1266.98C1307.85 1284.85 1308.25 1305.61 1306.18 1329.58C1284.91 1324.73 1281.37 1304.08 1262.68 1298.9C1252.06 1321.14 1231.5 1312.57 1213.59 1309.56C1194.67 1306.39 1178.01 1305.19 1161.86 1318.03C1149.79 1327.63 1132.65 1328.6 1116.97 1330.8C1110.84 1331.67 1102.99 1334.25 1099.13 1327.37C1095.75 1321.33 1100.17 1315.96 1103.95 1311.02C1106.54 1307.63 1109.32 1304.37 1111.73 1301.39C1110.11 1294.62 1104.22 1294.09 1099.33 1293.47C1068.61 1289.51 1038.16 1284.53 1006.77 1284.59C792.861 1284.99 578.953 1284.75 365.045 1284.65C332.042 1284.64 331.717 1284.59 321.859 1257.43C260.214 1087.6 198.723 917.734 137.189 747.876C109.182 670.565 81.4978 593.157 52.8814 516.027C48.2694 503.596 50.2018 495.712 62.7027 489.241C69.5509 485.696 75.4354 480.673 82.2038 476.98C96.6045 469.121 102.336 460.448 98.1605 443.45C91.8144 417.615 107.134 392.272 106.831 366.012C106.687 353.593 107.519 341.032 109.6 328.767C111.218 319.239 116.131 309.336 128.057 307.813C139.529 306.349 144.359 316.229 146.2 323.821C152.68 350.56 179.9 364.302 194.65 390.876C196.023 372.418 208.672 367.434 221.38 362.155C307.029 326.577 386.707 282.291 460.829 229.874C483.765 213.654 484.408 213.641 468.892 192.025C458.497 177.545 454.497 162.803 461.882 146.535C464.6 140.548 467.622 133.65 476.015 132.947C484.387 132.246 485.815 139.617 489.232 144.451C490.591 146.374 492.306 148.093 495.305 151.591C503.429 138.775 511.777 127.491 526.559 122.017C539.804 117.112 547.133 120.479 547.92 133.525C548.739 147.114 548.666 160.67 544.546 175.327C588.25 146.811 631.929 118.265 675.663 89.7869C709.955 67.457 744.559 45.504 778.493 22.7452C788.432 16.0792 795.899 17.1075 805.013 23.33C820.285 33.7576 836.66 42.9163 851.614 53.6793C862.881 61.7886 872.535 62.8635 885.697 56.491C922.964 38.4482 961.158 21.9525 998.624 4.23122C1010.39 -1.33444 1018.39 -0.337921 1028.11 8.36946C1136.33 105.368 1245.04 201.927 1353.52 298.697C1439.91 375.769 1526.16 452.971 1613.45 531.025ZM1074.68 994.78C1086.23 995.961 1089.32 989.066 1091.38 980.923C1098.03 954.694 1093.82 929.067 1086.64 903.504C1084.68 896.513 1079.12 889.132 1091.42 877.854C1115.06 914.985 1149.02 943.826 1163.61 987.052C1187.16 966.643 1188.82 941.156 1204.53 924.676C1220.8 926.606 1216.74 943.051 1228.57 945.854C1235.2 944.347 1236.53 939.456 1238.59 935.164C1250.8 909.692 1270.42 888.727 1289.63 867.517C1298.86 857.332 1306.58 856.968 1312.3 870.391C1323.97 897.774 1328.73 925.366 1316.55 953.743C1310.37 968.143 1304.12 982.539 1298.69 997.17C1295.89 1004.71 1291.46 1012.86 1299.06 1020.45C1322.95 1015.3 1327.11 1012.65 1334.22 993.861C1347.2 959.571 1359.1 924.949 1372.38 890.756C1377.16 878.454 1373.76 871.863 1360.29 868.03C1332.6 860.149 1316.19 841.232 1307.44 818.183C1292.97 780.093 1260.66 761.568 1222.28 746.501C1187.21 732.732 1151.11 720.358 1119.09 701.009C1103.78 691.764 1090.16 680.708 1084.98 659.734C1151.05 664.299 1218.34 631.808 1278.37 679.696C1273.04 664.943 1263.62 653.877 1266.33 638.88C1276.19 584.299 1309.34 537.363 1328.08 485.709C1331.52 476.234 1339.28 466.022 1352 467.24C1364.97 468.483 1364.89 480.714 1367.1 489.767C1372.2 510.626 1374.48 532.041 1382.55 552.313C1384.33 556.809 1385.83 562.129 1392.13 562.481C1399.43 562.89 1402.3 557.5 1403.95 552.266C1407.19 541.992 1409.02 531.303 1412.97 521.277C1419.66 504.318 1423.92 485.795 1444.58 473.113C1469.36 507.381 1461.88 547.907 1475.69 587.078C1491.44 571.537 1493.26 555.127 1499.07 540.66C1512.8 506.453 1512.12 506.544 1479.81 485.574C1386.47 425.002 1293.3 364.21 1200.06 303.512C1095.55 235.475 990.887 167.618 886.673 99.2135C872.173 89.696 860.576 88.2547 843.764 96.1187C738.68 145.271 633.297 193.94 527.254 241.403C425.819 286.804 325.442 333.499 237.065 398.228C230.544 403.004 221.68 406.449 223.635 416.194C228.865 442.264 234.229 468.312 240.254 497.872C255.41 471.489 262.612 445.268 282.846 422.305C309.254 446.996 301.079 474.738 297.666 503.429C314.829 496.616 329.861 492.04 345.483 489.76C359.752 487.677 364.381 493.264 358.201 504.942C349.896 520.638 334.599 528.907 316.558 532.575C303.725 535.183 290.317 535.416 277.277 537.327C255.011 540.59 247.479 548.148 251.171 565.309C260.784 609.992 264.652 655.639 278.838 700.353C289.436 685.619 288.9 666.705 302.741 655.064C312.102 655.927 310.271 663.7 315.379 666.992C314.824 650.494 318.511 635.089 322.542 619.439C329.048 594.181 347.203 611.194 358.941 611.324C370.375 611.451 370.002 623.258 367.962 631.337C362.759 651.933 354.268 671.216 333.827 683.89C326.724 688.294 322.595 693.451 324.19 702.681C339.12 690.003 353.174 677.829 367.567 665.987C372.202 662.173 376.909 655.594 384.235 659.101C392.726 663.166 388.26 670.654 386.96 676.754C382.82 696.188 374.479 714.286 364.109 731.629C349.088 756.747 332.804 781.304 318.966 806.93C309.61 824.257 300.677 841.818 304.622 862.929C322.762 960.01 340.253 1057.19 356.729 1154.51C359.145 1168.78 366.363 1173.88 380.167 1175.79C467.686 1187.89 555.197 1200.05 642.707 1212.21C741.331 1225.92 840.245 1238.17 938.475 1253.86C1008.07 1264.98 1077.74 1267.06 1147.93 1265.53C1150.52 1265.48 1153.2 1265.18 1153.88 1261.07C1124.1 1234.55 1098.48 1204.26 1082.72 1168.53C1061.53 1120.47 1030.02 1083.5 971.776 1067.5C933.519 1056.98 899.678 1038.49 874.897 1008.33C861.516 992.043 861.19 988.418 882.842 980.718C948.21 957.472 1011.09 963.581 1074.68 994.78ZM272.341 1062.56C295.127 1125.22 318.302 1187.77 340.359 1250.64C344.603 1262.74 351.457 1266.04 364.609 1266.01C518.271 1265.69 671.934 1265.76 825.596 1265.72C838.026 1265.72 850.456 1265.72 862.886 1265.72C862.846 1264.03 862.807 1262.33 862.768 1260.64C804.709 1252.32 746.678 1243.85 688.586 1235.72C581.462 1220.74 474.355 1205.65 367.104 1191.43C348.876 1189.02 341.507 1181.76 338.911 1165.84C329.725 1109.53 319.434 1053.35 309.285 997.164C294.272 914.047 279.066 830.958 263.853 747.87C257.201 711.543 239.384 680.312 202.694 662.633C169.696 646.732 154.788 621.34 144.425 591.823C139.266 577.127 143.275 573.077 160.421 577.063C174.07 580.235 187.162 585.337 202.384 590.181C190.705 566.908 173.017 551.372 151.225 539.395C132.322 529.006 119.468 514.598 112.483 495.789C111.092 492.043 110.85 487.365 105.284 486.137C70.6658 502.043 70.0057 502.822 81.4572 534.583C144.605 709.721 207.924 884.809 272.341 1062.56ZM1602.62 599.568C1613.92 595.794 1630.54 598.146 1634.45 585.45C1638.42 572.577 1623.26 566.376 1614.84 558.699C1575.82 523.145 1536.28 488.052 1496.85 452.86C1344.76 317.109 1192.83 181.219 1040.41 45.7675C1004.24 13.6201 1018.68 16.7846 973.326 36.7748C962.036 41.7502 950.838 46.8974 939.684 52.1143C923.565 59.6534 906.748 66.199 891.211 77.4202C896.501 81.5617 900.162 84.9029 904.328 87.621C1108.86 221.08 1313.35 354.591 1518.2 487.645C1530.96 495.929 1535.45 502.623 1529.18 516.785C1518.94 539.91 1511.04 563.928 1503.28 587.862C1497.18 606.667 1502.24 611.747 1522.29 612.909C1549.35 614.477 1574.82 609.563 1602.62 599.568ZM600.417 161C565.494 184.253 530.571 207.507 495.648 230.76C613.087 183.275 726.595 129.653 840.875 76.2562C832.392 59.8638 816.446 55.8686 805.607 46.7889C795.777 38.5543 787.338 39.1114 776.163 46.5238C718.716 84.6269 660.591 121.908 600.417 161ZM1373.87 681.399C1385.82 704.357 1397.78 727.315 1409.77 750.338C1425.84 701.773 1425.51 659.135 1365.43 636.566C1358.33 643.049 1370.95 651.318 1362.31 658.599C1350.02 648.932 1351.89 634.889 1349.38 623.012C1345.87 606.385 1330.69 606.57 1318.46 602.212C1313.08 600.292 1307.09 601.891 1304.93 606.802C1300.33 617.211 1308.41 624.782 1314.04 632.607C1316.9 636.569 1320.97 639.814 1323.9 643.737C1333.12 656.066 1355.27 662.394 1346.78 683.021C1367.45 711.336 1362.16 743.38 1363.57 774.574C1364.14 787.082 1365.52 800.074 1376.98 810.395C1386.83 795.902 1371.94 781.112 1380.33 765.876C1398.48 781.814 1384.7 803.765 1398.74 823.75C1407.07 798.759 1408.06 777.645 1398.98 756.977C1389.3 734.96 1377.47 713.71 1367.18 691.9C1364.14 685.459 1359.43 678.342 1365.39 670.676C1371.36 672.009 1371.07 676.227 1373.87 681.399ZM998.571 1013.59C970.58 1006.21 942.213 1000.7 912.911 1000.02C907.001 999.886 900.177 999.071 897.356 1005.2C894.642 1011.1 899.795 1015.27 903.551 1019.28C917.981 1034.66 938.985 1037.24 958.939 1040.45C998.363 1046.77 1036.36 1056.06 1070.56 1075.52C1074.14 1077.57 1077.89 1081.43 1082.85 1077.4C1083.16 1076.25 1083.98 1074.99 1083.66 1074.06C1082.71 1071.26 1081.37 1068.55 1080.06 1065.86C1065.1 1034.99 1035.84 1021.64 998.571 1013.59ZM1387 1044.64C1400.48 1037.53 1416.78 1034.52 1430.43 1021.43C1409.2 1023.55 1395.16 1036.62 1376.45 1035.37C1395 1019.35 1421.22 1014.71 1443.7 995.823C1395.36 1000.34 1353.68 1007.96 1315.75 1027.65C1306.45 1032.47 1299.29 1039.82 1295.49 1049.02C1291.84 1057.85 1294.39 1073.01 1300.31 1072.17C1312.89 1070.37 1312.49 1080 1318.56 1083.64C1340.09 1069.4 1361.81 1057 1387 1044.64ZM1564.44 719.547C1570.12 709.507 1576.04 699.568 1581.41 689.393C1585.21 682.171 1592.95 673.507 1582.6 667.152C1571.38 660.266 1560.43 665.863 1553.36 674.543C1527.62 706.123 1509.23 741.447 1488.72 775.697C1520.25 791.11 1524.28 790.191 1539.01 764.776C1547.23 750.579 1555.15 736.237 1564.44 719.547ZM1238.9 1062.78C1242.11 1086.25 1235.73 1108.74 1230.26 1131.33C1221.55 1167.3 1217.83 1203.56 1221.48 1241.81C1245.69 1221.65 1251.52 1197.21 1248.74 1171.02C1247.14 1155.91 1248.65 1141.61 1252.68 1127.16C1256.53 1113.37 1260.67 1099.61 1263.62 1085.66C1267.59 1066.84 1253.6 1038.89 1236.18 1029.63C1233.52 1039.95 1236.94 1049.72 1238.9 1062.78ZM1427.78 958.242C1454.23 918.651 1474.94 876.377 1498.71 835.537C1501.24 831.192 1505.75 825.725 1499.82 820.98C1494.23 816.517 1487.21 817.697 1481.2 820.37C1476 822.687 1471.15 825.942 1466.76 829.407C1422.44 864.391 1429.3 913.132 1423.95 958.573C1423.94 958.715 1425.11 958.97 1427.78 958.242ZM1155.36 1182.26C1163.44 1204.45 1173.88 1225.34 1194.53 1241.02C1185.32 1198.85 1175.11 1157.49 1169.6 1115.13C1163.93 1071.56 1174.69 1030.82 1188.94 989.787C1167.9 1009.42 1158.06 1032.27 1161.16 1058.51C1162.79 1072.28 1162.4 1085.54 1159.16 1099.03C1152.79 1125.58 1144.55 1152.13 1155.36 1182.26ZM991.564 979.386C938.451 975.959 928.546 977.153 917.09 989.318C924.685 990.903 931.516 992.92 938.517 993.689C970.734 997.23 1001.94 1004.48 1032.84 1013.15C1051.66 1018.43 1068.19 1026.04 1078.41 1042.22C1081.08 1046.44 1083.75 1052.34 1094.16 1049.75C1090.25 1032.23 1085.15 1016.18 1066.12 1006.07C1043.77 994.194 1020.3 985.108 991.564 979.386ZM1537.16 644.789C1541.89 642.231 1545.63 636.909 1555.06 641.304C1535.47 661.826 1515.85 682.071 1513.22 710.402C1530.33 686.124 1547.94 662.293 1569.08 641.077C1551.59 619.413 1548.16 617.574 1528.84 624.21C1504.57 632.546 1502.96 654.645 1491.67 671.227C1505.82 678.159 1513.53 674.898 1519.79 664.85C1523.9 658.24 1529.92 652.588 1537.16 644.789ZM1391.36 897.938C1381.8 924.343 1372.12 950.715 1362.76 977.177C1360.36 983.965 1353.14 993.163 1364.91 996.821C1374.2 999.708 1385.63 996.167 1389.58 986.633C1400.45 960.431 1407.39 933.364 1404.25 905.135C1403.73 900.462 1405.42 889.641 1391.36 897.938ZM1440.57 619.916C1443.53 626.692 1444.84 634.241 1451.47 640.43C1458.72 607.651 1447.49 531.169 1433.27 517.82C1422.03 540.072 1413.33 561.595 1426.92 585.646C1432.54 595.582 1435.41 606.766 1440.57 619.916ZM1380.06 590.836C1363.86 574.714 1369.78 548.571 1348.45 534.251C1346.72 540.387 1351.26 544.744 1352.34 549.809C1353.37 554.595 1358.28 559.554 1351.61 563.907C1340.9 563.456 1342.8 550.649 1333.28 549.391C1326.27 552.155 1325.77 558.888 1322.17 563.617C1312.3 576.568 1314.5 585.399 1332.95 589.31C1344.01 591.655 1352.87 598.144 1362.2 603.812C1375.93 612.152 1380.12 609.494 1380.06 590.836ZM1180.43 717.659C1194.71 721.916 1206.45 732.716 1223.91 732.619C1201.16 690.892 1145.8 666.499 1120.39 687.285C1136.42 702.33 1157.65 708.599 1180.43 717.659ZM1114.05 1198.33C1131.92 1221.94 1148.34 1246.88 1180.61 1258.94C1182 1252.35 1178.71 1248.77 1175.45 1246.54C1145.89 1226.34 1129.49 1198.63 1116.96 1168.11C1112.72 1157.78 1104.81 1148.5 1097.51 1139.43C1093.74 1134.74 1090.05 1127.89 1078.56 1130.44C1088.1 1153.53 1098.56 1175.5 1114.05 1198.33ZM1282.82 929.684C1273.19 967.497 1273.22 981.664 1283.77 998.46C1295.74 963.108 1326.04 931.405 1301.14 888.556C1289.88 901.879 1285.86 914.015 1282.82 929.684ZM1190.58 1169C1193.69 1179.9 1196.8 1190.79 1199.91 1201.68C1184.18 1140.61 1199.48 1079.53 1202.75 1016.99C1190.74 1021.15 1190.25 1028.09 1188.22 1034.09C1173.27 1078.23 1181.53 1122.18 1190.58 1169ZM1332.5 753.523C1341.29 762.9 1349.88 772.369 1350.15 785.73C1352.86 741.27 1361.98 695.278 1305.78 662.264C1328.7 691.821 1328.9 721.677 1332.5 753.523ZM138.342 383.942C134.265 373.595 130.183 363.25 119 353.334C114.135 378.453 113.825 400.675 117.975 422.941C119.36 430.37 123.299 437.73 132.498 437.435C142.438 437.117 143.681 428.629 144.327 421.471C145.399 409.587 144.671 397.81 138.342 383.942ZM214.263 505.014C212.666 511.315 211.792 517.852 209.352 523.878C196.338 556.024 204.107 578.945 236.696 600.682C232.377 560.559 222.43 522.07 214.385 478.741C214.385 489.459 214.385 495.732 214.263 505.014ZM1207.97 1165.99C1208.92 1170.06 1206.65 1175.04 1213.03 1179.32C1213.8 1156.63 1219.23 1136.01 1223.73 1115.24C1228.28 1094.21 1231.89 1073.15 1220.09 1048.44C1212.2 1089.13 1204.14 1125.53 1207.97 1165.99ZM1681.64 643.266C1691.96 631.253 1690.28 624.852 1675.66 620.377C1659.73 615.501 1631.5 631.518 1629 647.34C1646.29 655.515 1662.89 652.45 1681.64 643.266ZM1365.49 1122.37C1336.64 1126.08 1310.7 1134.14 1296.45 1160.02C1322.97 1140.3 1352.95 1129.16 1389.11 1133.22C1384.8 1119.22 1376.34 1121.25 1365.49 1122.37ZM187.197 444.007C185.467 472.428 179.056 500.781 184.808 531.725C199.271 491.071 199.971 466.858 187.197 444.007ZM1419.68 638.752C1415.11 629.331 1412.29 618.881 1401.93 612.535C1388.69 625.67 1394.62 646.796 1411.72 650.726C1421.73 653.025 1420.28 646.524 1419.68 638.752ZM240.383 654.092C240.975 654.244 241.677 654.642 242.127 654.479C242.579 654.315 243.154 653.493 243.035 653.129C234.927 628.42 217.377 611.648 190.291 602.89C205.879 620.096 225.154 634.371 240.383 654.092ZM993.004 1061.69C1005.88 1068.92 1018.36 1077.28 1037.31 1075.28C1022.41 1062.51 1009.15 1058.56 993.004 1061.69ZM343.462 732.3C340.807 738.702 334.899 744.134 336.088 754.616C347.984 739.159 356.522 725.056 359.88 708.219C354.839 715.5 349.797 722.781 343.462 732.3ZM1424.36 604.278C1422.65 596.49 1420.43 588.979 1410.86 583.273C1406.98 595.006 1410.86 603.633 1417.63 610.568C1423.45 616.525 1424.48 611.126 1424.36 604.278ZM1260.1 1018.81C1269.96 1005.37 1262.07 992.029 1260.13 978.63C1259.91 991.835 1253.21 1004.77 1260.1 1018.81ZM173.531 483.61C174.919 471.505 176.306 459.4 177.693 447.295C171.792 464.084 168.925 481.097 172.416 498.528C172.685 494.481 172.955 490.434 173.531 483.61ZM160.302 461.667C155.564 449.596 143.848 457.404 135.99 454.087C143.589 458.342 147.008 471.561 160.302 461.667ZM1476.92 802.169C1484.35 802.716 1492.28 805.58 1498.41 798.685C1484.97 790.886 1484.92 790.891 1476.92 802.169ZM1415.48 795.623C1416.31 798.677 1414.91 802.683 1420.76 804.313C1424.35 795.055 1427.01 786.139 1419.31 773.275C1417.57 782.374 1416.52 787.86 1415.48 795.623Z" fill="#EEBF63"/>
<path d="M46.3741 436.124C29.0216 421.955 15.2751 406.829 5.4601 389.038C2.63906 383.925 -2.7827 378.155 3.47369 372.865C9.00596 368.188 15.9205 371.339 22.1692 373.324C39.4322 378.807 51.4041 389.83 59.0544 404.106C66.6328 418.247 72.4018 433.169 79.7414 449.474C63.3945 451.188 56.6895 441.599 46.3741 436.124Z" fill="#EEBF63"/>
<path d="M217.43 332.816C205.339 338.538 194.5 343.584 183.618 348.65C173.295 328.227 179.346 295.142 194.919 281.559C199.696 277.392 204.892 272.761 212.077 275.331C220.462 278.33 217.393 285.034 216.35 290.677C215.177 297.021 213.698 303.319 212.341 309.687C219.998 313.735 228.665 306.713 236.038 313.279C235.797 323.217 226.161 326.941 217.43 332.816Z" fill="#EEBF63"/>
<path d="M368.333 394.888C381.158 401.861 374.173 411.397 373.292 419.346C370.393 445.505 349.995 472.441 324.818 481.101C338.357 462.813 327.805 443.644 330.596 424.971C333.435 405.983 348.814 399.019 368.333 394.888Z" fill="#EEBF63"/>
<path d="M1347.36 1054.14C1338.36 1058.68 1330.64 1062.67 1320.3 1068.02C1327.71 1052.02 1341.36 1044.15 1363.4 1041.22C1362.12 1049.39 1354.04 1050.29 1347.36 1054.14Z" fill="black"/>
</svg>
