<svg width="532" height="522" viewBox="0 0 1632 1522" fill="none" xmlns="http://www.w3.org/2000/svg">
<path d="M1473.55 802.516C1442.39 786.975 1407.82 773.012 1371.55 760.997C1407.83 748.985 1442.39 735.019 1473.55 719.481C1644.27 634.341 1672.07 520.173 1578.71 380.497C1485.42 240.925 1357.11 204.468 1186.27 289.668C1155.1 305.209 1123.83 324.085 1093.64 345.212C1099.73 312.072 1103.02 279.233 1103.02 248.151C1103.02 77.8776 1002.45 0 815.74 0C629.171 0 528.459 77.7587 528.459 248.151C528.459 279.233 531.745 312.072 537.836 345.215C507.652 324.088 476.373 305.209 445.207 289.668C274.49 204.531 146.132 240.827 52.7701 380.5C-40.5161 520.06 -12.9126 634.285 157.929 719.481C189.095 735.022 223.66 748.985 259.929 760.997C223.657 773.01 189.088 786.975 157.926 802.516C-12.7921 887.653 -40.5883 1001.83 52.7701 1141.5C148.132 1284.17 277.804 1315.82 445.207 1232.33C476.373 1216.79 507.652 1197.91 537.836 1176.78C531.745 1209.92 528.459 1242.76 528.459 1273.85C528.459 1444.12 629.027 1522 815.74 1522C1002.31 1522 1103.02 1444.24 1103.02 1273.85C1103.02 1242.77 1099.74 1209.93 1093.64 1176.79C1123.83 1197.92 1155.11 1216.79 1186.27 1232.33C1348.75 1313.36 1480.53 1288.38 1578.71 1141.5C1672 1001.94 1644.39 887.715 1473.55 802.516ZM1243.73 375.631C1369.22 313.047 1423.3 346.505 1479.19 430.131C1535.09 513.758 1541.58 570.94 1416.1 633.524C1342.34 670.304 1242.82 697.4 1154.55 705.964C1139.83 638.2 1098.46 578.455 1040.22 535.191C1092.95 473.392 1169.93 412.435 1243.73 375.631ZM815.74 99.26C927.531 99.26 988.11 122.988 988.11 248.151C988.11 321.716 965.517 409.718 929.961 480.039C894.197 469.159 855.76 463.217 815.74 463.217C775.724 463.217 737.286 469.159 701.52 480.039C665.963 409.718 643.371 321.722 643.371 248.151C643.371 122.988 703.953 99.26 815.74 99.26ZM215.38 633.521C89.896 570.94 96.39 513.755 152.289 430.131C208.184 346.511 262.269 313.059 387.75 375.631C461.554 412.441 538.535 473.393 591.257 535.188C533.015 578.449 491.646 638.194 476.927 705.961C388.655 697.397 289.133 670.298 215.38 633.521ZM387.75 1146.37C262.266 1208.95 208.184 1175.49 152.289 1091.87C96.3934 1008.24 89.896 951.06 215.38 888.476C289.136 851.696 388.655 824.6 476.93 816.036C491.649 883.8 533.018 943.545 591.261 986.809C538.535 1048.61 461.554 1109.56 387.75 1146.37ZM815.74 1422.74C703.95 1422.74 643.371 1399.01 643.371 1273.85C643.371 1200.28 665.963 1112.28 701.52 1041.96C737.283 1052.84 775.724 1058.78 815.74 1058.78C855.757 1058.78 894.194 1052.84 929.961 1041.96C965.517 1112.28 988.11 1200.28 988.11 1273.85C988.11 1399.01 927.531 1422.74 815.74 1422.74ZM815.74 959.523C689.014 959.523 585.913 870.465 585.913 761C585.913 651.535 689.014 562.477 815.74 562.477C942.467 562.477 1045.57 651.535 1045.57 761C1045.57 870.465 942.467 959.523 815.74 959.523ZM1479.19 1091.87C1423.29 1175.5 1369.22 1208.95 1243.73 1146.37C1169.93 1109.56 1092.95 1048.61 1040.22 986.812C1098.47 943.551 1139.83 883.806 1154.55 816.039C1242.83 824.597 1342.34 851.696 1416.1 888.476C1541.58 951.063 1535.08 1008.24 1479.19 1091.87Z" fill="#CC3535" />
</svg>
