<svg width="17" height="18" viewBox="0 0 17 18" fill="none" xmlns="http://www.w3.org/2000/svg">
<path d="M8.5 0C3.81071 0 0 4.03487 0 9C0 13.9651 3.81071 18 8.5 18C13.1893 18 17 13.9651 17 9C17 4.03487 13.1893 0 8.5 0ZM8.5 0.782609C12.7897 0.782609 16.2609 4.458 16.2609 9C16.2609 9.02793 16.259 9.05544 16.2587 9.08331C16.0223 9.0602 15.7492 9.03826 15.4019 9.02522C14.9109 9.00678 14.2919 9.01213 13.5902 9.04891C13.6162 8.85704 13.6344 8.66245 13.6349 8.46272C13.6707 7.72996 13.4383 7.04444 13.0604 6.43894C13.1517 6.10488 13.2588 5.67987 13.2856 5.19777C13.3161 4.64827 13.2713 4.03895 12.8547 3.62721L12.7478 3.52174H12.602C11.6105 3.52174 10.9317 3.96126 10.5167 4.3097C9.91748 4.0641 9.24365 3.91304 8.5 3.91304C7.75214 3.91304 7.07182 4.06621 6.4479 4.31123C6.03312 3.96262 5.35381 3.52174 4.36116 3.52174H4.21607L4.10925 3.62644C3.7034 4.02547 3.66601 4.61808 3.69132 5.16491C3.71365 5.64711 3.81455 6.08562 3.90425 6.43589C3.51992 7.05321 3.28927 7.75644 3.28927 8.45202C3.28927 8.65222 3.30686 8.84742 3.33258 9.03974C2.66524 9.00697 2.07034 9.00065 1.59808 9.01834C1.2508 9.03135 0.977663 9.05311 0.741296 9.07643C0.741075 9.05086 0.73913 9.02562 0.73913 9C0.73913 4.458 4.21033 0.782609 8.5 0.782609ZM4.58131 4.35555C5.32694 4.43036 5.88791 4.7829 6.14763 5.02734L6.32086 5.18937L6.53452 5.09689C7.11897 4.84208 7.77084 4.69565 8.5 4.69565C9.22916 4.69565 9.88121 4.84281 10.4215 5.09307L10.638 5.19395L10.8148 5.02734C11.0746 4.78282 11.6366 4.43017 12.3826 4.35555C12.4818 4.52968 12.568 4.7773 12.5472 5.15192C12.5223 5.60024 12.409 6.08856 12.3234 6.37857L12.2678 6.56734L12.3783 6.72707C12.7439 7.25505 12.9304 7.82645 12.8987 8.43062L12.898 8.44132V8.45202C12.898 9.4285 12.5659 10.21 11.8586 10.7891C11.1513 11.3683 10.0347 11.7391 8.46319 11.7391C6.8917 11.7391 5.77439 11.3682 5.06709 10.7891C4.35978 10.21 4.02841 9.4285 4.02841 8.45202C4.02841 7.87888 4.22387 7.24836 4.58492 6.72707L4.69319 6.57116L4.64122 6.38545C4.55558 6.07715 4.45061 5.57769 4.42973 5.1267C4.41236 4.75159 4.49621 4.51449 4.58131 4.35555ZM2.54437 9.39971C2.80554 9.40324 3.10489 9.41817 3.40476 9.4341C3.43342 9.55611 3.46609 9.67613 3.50582 9.79331C2.28353 9.8206 1.36914 9.95074 0.805537 10.0623C0.781707 9.86654 0.762727 9.66914 0.752123 9.46926C1.16864 9.42741 1.7558 9.38905 2.54437 9.39971ZM14.4556 9.40583C15.2437 9.39523 15.8306 9.43363 16.2472 9.47537C16.2366 9.67239 16.2179 9.867 16.1945 10.06C15.6107 9.94665 14.6716 9.81653 13.4177 9.7956C13.4566 9.68074 13.489 9.56278 13.5173 9.44327C13.8481 9.4245 14.1708 9.40965 14.4556 9.40583ZM3.66317 10.1816C3.88371 10.6495 4.19882 11.0673 4.61523 11.4082C5.18457 11.8743 5.92473 12.2 6.82829 12.3742C6.71008 12.5028 6.60257 12.6441 6.50709 12.7931L6.48471 12.7724C6.48675 12.77 6.30099 12.8684 6.02348 12.8947C5.74597 12.921 5.40364 12.913 5.10029 12.913C4.64757 12.913 4.44816 12.6866 4.12946 12.2741C3.95297 12.0223 3.73782 11.8183 3.52891 11.6635C3.31501 11.5049 3.13253 11.393 2.90672 11.3532L2.8764 11.3478H2.84536C2.6729 11.3478 2.50602 11.361 2.3502 11.5496C2.2723 11.6439 2.2186 11.8184 2.25348 11.9661C2.28836 12.1138 2.37662 12.2046 2.45559 12.2604C2.96068 12.6169 3.04995 13.3225 3.36651 13.9502C3.66213 14.5739 4.30014 14.8696 4.95232 14.8696H5.91304V16.7489C3.31419 15.7776 1.35434 13.3844 0.861838 10.449C1.42761 10.3362 2.37503 10.2006 3.66317 10.1816ZM13.261 10.1846C14.5777 10.1965 15.5517 10.332 16.1389 10.4468C15.647 13.3832 13.6865 15.7773 11.087 16.7489V14.7129C11.087 14.0928 10.8947 13.4091 10.56 12.8389C10.4584 12.6658 10.3389 12.5021 10.2056 12.3551C11.0613 12.1762 11.7641 11.8561 12.3111 11.4082C12.7267 11.068 13.0411 10.6515 13.261 10.1846ZM8.01928 12.5607H9.05435C9.35474 12.5607 9.67537 12.8142 9.93207 13.2516C10.1888 13.689 10.3478 14.2764 10.3478 14.7129V16.982C9.75556 17.1349 9.13705 17.2174 8.5 17.2174C7.86295 17.2174 7.24444 17.1349 6.65217 16.982V14.7129C6.65217 14.2861 6.82507 13.7001 7.09897 13.2608C7.37288 12.8215 7.71889 12.5607 8.01928 12.5607ZM3.8097 13.0231C4.12966 13.3745 4.51702 13.6957 5.10029 13.6957C5.38824 13.6957 5.74766 13.7066 6.08916 13.6743C6.09038 13.6741 6.09156 13.6736 6.09277 13.6735C6.04778 13.8104 6.01421 13.9483 5.98595 14.087H4.95232C4.49652 14.087 4.17452 13.9126 4.02624 13.5986L4.02335 13.5932L4.02119 13.5887C3.96043 13.4692 3.88067 13.2302 3.8097 13.0231Z" fill="#9B9B9B"/>
</svg>
