<svg width="42" height="42" viewBox="0 0 42 42" fill="none" xmlns="http://www.w3.org/2000/svg">
<g filter="url(#filter0_d_6_40)">
<path d="M21 0C11.6214 0 4 7.62142 4 17C4 26.3786 11.6214 34 21 34C30.3786 34 38 26.3786 38 17C38 7.62142 30.3786 0 21 0ZM21 1.47826C29.5793 1.47826 36.5217 8.42067 36.5217 17C36.5217 17.0528 36.5179 17.1047 36.5174 17.1574C36.0447 17.1137 35.4984 17.0723 34.8038 17.0476C33.8217 17.0128 32.5838 17.0229 31.1804 17.0924C31.2324 16.73 31.2689 16.3624 31.2699 15.9851C31.3414 14.601 30.8766 13.3062 30.1208 12.1624C30.3034 11.5314 30.5176 10.7286 30.5712 9.81802C30.6322 8.78008 30.5426 7.62913 29.7093 6.85139L29.4957 6.65217H29.2041C27.2209 6.65217 25.8635 7.48237 25.0335 8.14054C23.835 7.67662 22.4873 7.3913 21 7.3913C19.5043 7.3913 18.1436 7.68061 16.8958 8.14343C16.0662 7.48495 14.7076 6.65217 12.7223 6.65217H12.4321L12.2185 6.84995C11.4068 7.60367 11.332 8.72304 11.3826 9.75594C11.4273 10.6668 11.6291 11.4951 11.8085 12.1567C11.0398 13.3227 10.5785 14.6511 10.5785 15.9649C10.5785 16.3431 10.6137 16.7118 10.6652 17.0751C9.33047 17.0132 8.14068 17.0012 7.19616 17.0346C6.5016 17.0592 5.95533 17.1003 5.48259 17.1444C5.48215 17.0961 5.47826 17.0484 5.47826 17C5.47826 8.42067 12.4207 1.47826 21 1.47826ZM13.1626 8.22716C14.6539 8.36847 15.7758 9.03437 16.2953 9.49609L16.6417 9.80214L17.069 9.62746C18.2379 9.14615 19.5417 8.86957 21 8.86957C22.4583 8.86957 23.7624 9.14753 24.8429 9.62024L25.276 9.8108L25.6297 9.49609C26.1493 9.03421 27.2731 8.36811 28.7652 8.22716C28.9636 8.55606 29.136 9.0238 29.0943 9.7314C29.0445 10.5782 28.818 11.5006 28.6468 12.0484L28.5357 12.405L28.7565 12.7067C29.4879 13.704 29.8608 14.7833 29.7974 15.9245L29.7959 15.9447V15.9649C29.7959 17.8094 29.1318 19.2856 27.7171 20.3795C26.3026 21.4734 24.0694 22.1739 20.9264 22.1739C17.7834 22.1739 15.5488 21.4734 14.1342 20.3795C12.7196 19.2856 12.0568 17.8094 12.0568 15.9649C12.0568 14.8823 12.4477 13.6914 13.1698 12.7067L13.3864 12.4122L13.2824 12.0614C13.1112 11.4791 12.9012 10.5356 12.8595 9.68376C12.8247 8.97522 12.9924 8.52737 13.1626 8.22716ZM9.08874 17.755C9.61108 17.7617 10.2098 17.7899 10.8095 17.82C10.8668 18.0504 10.9322 18.2771 11.0116 18.4985C8.56707 18.55 6.73828 18.7958 5.61107 19.0066C5.56341 18.6368 5.52545 18.2639 5.50425 17.8864C6.33728 17.8073 7.51161 17.7349 9.08874 17.755ZM32.9113 17.7666C34.4873 17.7465 35.6612 17.8191 36.4943 17.8979C36.4731 18.2701 36.4358 18.6377 36.3889 19.0023C35.2214 18.7881 33.3432 18.5423 30.8353 18.5028C30.9132 18.2858 30.978 18.063 31.0346 17.8373C31.6962 17.8018 32.3416 17.7738 32.9113 17.7666ZM11.3263 19.2318C11.7674 20.1157 12.3976 20.9048 13.2305 21.5488C14.3691 22.4293 15.8495 23.0445 17.6566 23.3736C17.4202 23.6165 17.2051 23.8832 17.0142 24.1647L16.9694 24.1257C16.9735 24.121 16.602 24.307 16.047 24.3567C15.4919 24.4064 14.8073 24.3913 14.2006 24.3913C13.2951 24.3913 12.8963 23.9635 12.2589 23.1844C11.9059 22.7087 11.4756 22.3235 11.0578 22.031C10.63 21.7315 10.2651 21.5202 9.81343 21.4449L9.7528 21.4348H9.69073C9.3458 21.4348 9.01203 21.4598 8.70041 21.8159C8.5446 21.994 8.4372 22.3236 8.50696 22.6027C8.57672 22.8817 8.75324 23.0532 8.91118 23.1585C9.92136 23.8319 10.0999 25.1648 10.733 26.3503C11.3243 27.5284 12.6003 28.087 13.9046 28.087H15.8261V31.6368C10.6284 29.8021 6.70868 25.2817 5.72368 19.7371C6.85521 19.524 8.75005 19.2677 11.3263 19.2318ZM30.5221 19.2376C33.1554 19.2601 35.1034 19.516 36.2778 19.7328C35.2941 25.2794 31.373 29.8016 26.1739 31.6368V27.791C26.1739 26.6198 25.7893 25.3283 25.1201 24.2513C24.9169 23.9243 24.6779 23.615 24.4113 23.3375C26.1225 22.9994 27.5283 22.3948 28.6223 21.5488C29.4533 20.9062 30.0821 20.1194 30.5221 19.2376ZM20.0386 23.7258H22.1087C22.7095 23.7258 23.3507 24.2046 23.8641 25.0308C24.3775 25.8571 24.6957 26.9666 24.6957 27.791V32.0771C23.5111 32.366 22.2741 32.5217 21 32.5217C19.7259 32.5217 18.4889 32.366 17.3043 32.0771V27.791C17.3043 26.9848 17.6501 25.8779 18.1979 25.0481C18.7458 24.2184 19.4378 23.7258 20.0386 23.7258ZM11.6194 24.5992C12.2593 25.2629 13.034 25.8696 14.2006 25.8696C14.7765 25.8696 15.4953 25.8903 16.1783 25.8291C16.1808 25.8289 16.1831 25.8279 16.1855 25.8277C16.0956 26.0864 16.0284 26.3467 15.9719 26.6087H13.9046C12.993 26.6087 12.349 26.2794 12.0525 25.6862L12.0467 25.6761L12.0424 25.6675C11.9209 25.4417 11.7613 24.9904 11.6194 24.5992Z" fill="#FF687F"/>
</g>
<defs>
<filter id="filter0_d_6_40" x="0" y="0" width="42" height="42" filterUnits="userSpaceOnUse" color-interpolation-filters="sRGB">
<feFlood flood-opacity="0" result="BackgroundImageFix"/>
<feColorMatrix in="SourceAlpha" type="matrix" values="0 0 0 0 0 0 0 0 0 0 0 0 0 0 0 0 0 0 127 0" result="hardAlpha"/>
<feOffset dy="4"/>
<feGaussianBlur stdDeviation="2"/>
<feComposite in2="hardAlpha" operator="out"/>
<feColorMatrix type="matrix" values="0 0 0 0 0 0 0 0 0 0 0 0 0 0 0 0 0 0 0.25 0"/>
<feBlend mode="normal" in2="BackgroundImageFix" result="effect1_dropShadow_6_40"/>
<feBlend mode="normal" in="SourceGraphic" in2="effect1_dropShadow_6_40" result="shape"/>
</filter>
</defs>
</svg>
