<svg width="745" height="908" viewBox="0 0 745 600" fill="none" xmlns="http://www.w3.org/2000/svg">
<rect x="324" width="20" height="2597.5" rx="10" fill="#141414" fill-opacity="0.2"/>
<rect x="271" y="1.25" width="20" height="2597.5" rx="10" fill="#D9D9D9" fill-opacity="0.2"/>
<rect x="420" width="20" height="2597.5" rx="10" fill="#9E9E9E" fill-opacity="0.2"/>
<rect x="271" y="1.25" width="20" height="2597.5" rx="10" fill="#CEB92C" fill-opacity="0.2"/>
<rect x="372" width="20" height="2597.5" rx="10" fill="#565656" fill-opacity="0.2"/>
<rect x="218" y="1.25" width="20" height="2597.5" rx="10" fill="#E9EE00" fill-opacity="0.2"/>
<rect x="165" y="2.5" width="20" height="2597.5" rx="10" fill="#F16775" fill-opacity="0.2"/>
<rect x="108" y="2.5" width="20" height="2597.5" rx="10" fill="#373E98" fill-opacity="0.2"/>
<rect x="52" y="2" width="20" height="2597.5" rx="10" fill="#FBA92E" fill-opacity="0.2"/>
<rect y="2" width="20" height="2597.5" rx="10" fill="#703F37" fill-opacity="0.2"/>
<rect x="574" y="1.25" width="20" height="2597.5" rx="10" fill="#CCCCCC" fill-opacity="0.2"/>
<rect x="521" y="2.5" width="20" height="2597.5" rx="10" fill="#D9D9D9" fill-opacity="0.2"/>
<rect x="670" y="1.25" width="20" height="2597.5" rx="10" fill="#C29591" fill-opacity="0.2"/>
<rect x="725" y="2.5" width="20" height="2597.5" rx="10" fill="#703F37" fill-opacity="0.2"/>
<rect x="521" y="2.5" width="20" height="2597.5" rx="10" fill="#141414" fill-opacity="0.2"/>
<rect x="622" y="1.25" width="20" height="2597.5" rx="10" fill="#7386CC" fill-opacity="0.2"/>
<rect x="468" y="2.5" width="20" height="2597.5" rx="10" fill="#FBA92E" fill-opacity="0.2"/>
</svg>
