<svg width="366" height="225" viewBox="0 0 366 225" fill="none" xmlns="http://www.w3.org/2000/svg">
<g filter="url(#filter0_d_48_72)">
<rect x="17.0439" width="323.834" height="199.087" rx="8" fill="#333632"/>
<rect x="27" y="14" width="305" height="173" fill="#201F1F"/>
<path d="M357.971 208.403C357.959 212.822 354.367 216.394 349.948 216.383L8.02785 215.522C3.60958 215.511 0.0382806 211.92 0.0511188 207.502L0.079763 197.644L358 198.546L357.971 208.403Z" fill="#666666"/>
<rect x="79.0216" y="51.9356" width="52.6811" height="5.77062" fill="#F20000"/>
<rect x="108.461" y="121.183" width="21.6922" height="5.77062" fill="#F20000"/>
<rect x="79.0216" y="86.5593" width="32.5383" height="5.77062" fill="#F20000"/>
<rect x="184.384" y="69.2475" width="27.89" height="5.77062" fill="#F20000"/>
<path d="M145.648 51.9356H165.791V57.7062H145.648V51.9356Z" fill="#F29100"/>
<path d="M216.922 121.183H237.065V126.954H216.922V121.183Z" fill="#F29100"/>
<path d="M79.0216 121.183H99.1644V126.954H79.0216V121.183Z" fill="#F29100"/>
<path d="M119.307 86.5593H185.933V92.33H119.307V86.5593Z" fill="#F29100"/>
<path d="M198.329 86.5593H241.713V92.33H198.329V86.5593Z" fill="#B3F200"/>
<path d="M176.637 121.183H207.626V126.954H176.637V121.183Z" fill="#B3F200"/>
<path d="M79.0216 103.871H165.79V109.642H79.0216V103.871Z" fill="#B3F200"/>
<rect x="79.0216" y="69.2475" width="94.5161" height="5.77062" fill="#F200DA"/>
<rect x="137.901" y="121.183" width="29.4394" height="5.77062" fill="#F200DA"/>
<rect x="175.087" y="103.871" width="32.5383" height="5.77062" fill="#F200DA"/>
</g>
<defs>
<filter id="filter0_d_48_72" x="0.0510864" y="0" width="365.949" height="224.383" filterUnits="userSpaceOnUse" color-interpolation-filters="sRGB">
<feFlood flood-opacity="0" result="BackgroundImageFix"/>
<feColorMatrix in="SourceAlpha" type="matrix" values="0 0 0 0 0 0 0 0 0 0 0 0 0 0 0 0 0 0 127 0" result="hardAlpha"/>
<feOffset dx="4" dy="4"/>
<feGaussianBlur stdDeviation="2"/>
<feComposite in2="hardAlpha" operator="out"/>
<feColorMatrix type="matrix" values="0 0 0 0 0 0 0 0 0 0 0 0 0 0 0 0 0 0 0.25 0"/>
<feBlend mode="normal" in2="BackgroundImageFix" result="effect1_dropShadow_48_72"/>
<feBlend mode="normal" in="SourceGraphic" in2="effect1_dropShadow_48_72" result="shape"/>
</filter>
</defs>
</svg>
