<svg width="34" height="34" viewBox="0 0 34 34" fill="none" xmlns="http://www.w3.org/2000/svg">
<path d="M17 0C7.61991 0 0 7.61991 0 17C0 26.3801 7.61991 34 17 34C26.3801 34 34 26.3801 34 17C34 7.61991 26.3801 0 17 0ZM17 1.47826C25.5812 1.47826 32.5217 8.41883 32.5217 17C32.5217 25.5812 25.5812 32.5217 17 32.5217C8.41883 32.5217 1.47826 25.5812 1.47826 17C1.47826 8.41883 8.41883 1.47826 17 1.47826ZM10.3478 7.3913C9.13195 7.3913 8.13043 8.39282 8.13043 9.6087C8.13043 10.8246 9.13195 11.8261 10.3478 11.8261C11.5637 11.8261 12.5652 10.8246 12.5652 9.6087C12.5652 8.39282 11.5637 7.3913 10.3478 7.3913ZM10.3478 8.86957C10.7648 8.86957 11.087 9.19173 11.087 9.6087C11.087 10.0257 10.7648 10.3478 10.3478 10.3478C9.93086 10.3478 9.6087 10.0257 9.6087 9.6087C9.6087 9.19173 9.93086 8.86957 10.3478 8.86957ZM8.86957 12.5652C8.67354 12.5652 8.48555 12.6431 8.34694 12.7817C8.20833 12.9203 8.13045 13.1083 8.13043 13.3043V24.3913C8.13045 24.5873 8.20833 24.7753 8.34694 24.9139C8.48555 25.0525 8.67354 25.1304 8.86957 25.1304H11.8261C12.0221 25.1304 12.2101 25.0525 12.3487 24.9139C12.4873 24.7753 12.5652 24.5873 12.5652 24.3913V13.3043C12.5652 13.1083 12.4873 12.9203 12.3487 12.7817C12.2101 12.6431 12.0221 12.5652 11.8261 12.5652H8.86957ZM14.7826 12.5652C14.5866 12.5652 14.3986 12.6431 14.26 12.7817C14.1214 12.9203 14.0435 13.1083 14.0435 13.3043V24.3913C14.0435 24.5873 14.1214 24.7753 14.26 24.9139C14.3986 25.0525 14.5866 25.1304 14.7826 25.1304H17.7391C17.9352 25.1304 18.1231 25.0525 18.2618 24.9139C18.4004 24.7753 18.4782 24.5873 18.4783 24.3913V18.8478C18.4783 17.8282 19.3064 17 20.3261 17C21.3458 17 22.1739 17.8282 22.1739 18.8478V20.6957V24.3913C22.1739 24.5873 22.2518 24.7753 22.3904 24.9139C22.529 25.0525 22.717 25.1304 22.913 25.1304H25.8696C26.0656 25.1304 26.2536 25.0525 26.3922 24.9139C26.5308 24.7753 26.6087 24.5873 26.6087 24.3913V18.1087C26.6087 15.0558 24.1181 12.5652 21.0652 12.5652C20.1143 12.5652 19.2616 12.8728 18.4783 13.2971C18.4763 13.1024 18.3976 12.9162 18.2592 12.7792C18.1208 12.6421 17.9339 12.5652 17.7391 12.5652H14.7826ZM9.6087 14.0435H11.087V23.6522H9.6087V14.0435ZM15.5217 14.0435H17V14.6469C17 14.7919 17.0427 14.9336 17.1226 15.0546C17.2026 15.1755 17.3163 15.2702 17.4497 15.327C17.5831 15.3838 17.7302 15.4 17.8728 15.3738C18.0154 15.3476 18.1471 15.2801 18.2516 15.1796C18.984 14.4761 19.9689 14.0435 21.0652 14.0435C23.3193 14.0435 25.1304 15.8546 25.1304 18.1087V23.6522H23.6522V20.6957V18.8478C23.6522 17.0218 22.1521 15.5217 20.3261 15.5217C18.5001 15.5217 17 17.0218 17 18.8478V23.6522H15.5217V14.0435Z" fill="#FF687F"/>
</svg>
