<svg width="23" height="27" viewBox="0 0 23 27" fill="none" xmlns="http://www.w3.org/2000/svg">
<path d="M9.4686 2.06185C10.6843 1.19539 12.3157 1.19539 13.5314 2.06185L21.0314 7.40734C21.9529 8.06413 22.5 9.1259 22.5 10.2575V18.2579C22.5 19.529 21.8108 20.7002 20.6996 21.3175L13.1997 25.4839C12.1426 26.071 10.8574 26.071 9.80035 25.4839L2.30035 21.3175C1.18917 20.7002 0.5 19.529 0.5 18.2579V10.2575C0.5 9.1259 1.0471 8.06413 1.9686 7.40734L9.4686 2.06185Z" stroke="#FF687F" stroke-width="2"/>
<path d="M15.4 14.6C15.4 14.9867 15.26 15.32 14.98 15.6C14.7133 15.8667 14.3867 16 14 16H9.8V20.2H8.4V9H9.8V10L10.8 9H14C14.3867 9 14.7133 9.14 14.98 9.42C15.26 9.68667 15.4 10.0133 15.4 10.4V14.6ZM14 14.8V10.2H9.8V15.8L10.8 14.8H14Z" fill="#FF687F"/>
</svg>
