<svg width="34" height="34" viewBox="0 0 34 34" fill="none" xmlns="http://www.w3.org/2000/svg">
<path d="M8.09524 0C3.63368 0 0 3.63368 0 8.09524V25.9048C0 30.3663 3.63368 34 8.09524 34H25.9048C30.3663 34 34 30.3663 34 25.9048V8.09524C34 3.63368 30.3663 0 25.9048 0H8.09524ZM8.09524 1.61905H25.9048C29.4915 1.61905 32.381 4.50851 32.381 8.09524V25.9048C32.381 29.4915 29.4915 32.381 25.9048 32.381H8.09524C4.50851 32.381 1.61905 29.4915 1.61905 25.9048V8.09524C1.61905 4.50851 4.50851 1.61905 8.09524 1.61905ZM7.28571 8.90476C5.95407 8.90476 4.85714 10.0017 4.85714 11.3333V22.6667C4.85714 23.9983 5.95407 25.0952 7.28571 25.0952H26.7143C28.0459 25.0952 29.1429 23.9983 29.1429 22.6667V11.3333C29.1429 10.0017 28.0459 8.90476 26.7143 8.90476H7.28571ZM7.62091 10.5238H26.3775L19.1677 17.7226C17.9592 18.9291 16.026 18.9289 14.8181 17.721L7.62091 10.5238ZM27.5238 11.6669V22.3331L22.1828 17L27.5238 11.6669ZM6.47619 11.6685L11.8077 17L6.47619 22.3315V11.6685ZM21.0381 18.1431L26.3791 23.4762H7.62091L12.9524 18.1447L13.6734 18.8657C15.4995 20.6919 18.4836 20.6932 20.3108 18.8689L21.0381 18.1431Z" fill="#FF687F"/>
</svg>
