<svg width="419" height="808" viewBox="0 0 419 808" fill="none" xmlns="http://www.w3.org/2000/svg">
<rect width="61.1023" height="10.081" rx="5.04048" transform="matrix(0 -1 0.998375 0.056976 0 469.468)" fill="#FF5F5F" fill-opacity="0.1"/>
<rect width="61.1023" height="10.081" rx="5.04048" transform="matrix(0 -1 0.998375 0.056976 0 722.936)" fill="#FF5F5F" fill-opacity="0.1"/>
<rect width="61.1023" height="10.081" rx="5.04048" transform="matrix(0 -1 0.998375 0.056976 0 141.568)" fill="#FF5F5F" fill-opacity="0.1"/>
<path d="M5.46772 546.629C2.68846 546.47 0.435425 544.085 0.435425 541.301L0.435425 490.28C0.435425 487.496 2.68846 485.368 5.46772 485.527V485.527C8.24697 485.685 10.5 488.071 10.5 490.854L10.5 541.876C10.5 544.659 8.24697 546.788 5.46772 546.629V546.629Z" fill="#955656" fill-opacity="0.1"/>
<rect width="61.1023" height="10.081" rx="5.04048" transform="matrix(0 -1 0.998375 0.056976 0 310.547)" fill="#FFA26D" fill-opacity="0.1"/>
<path d="M5.03226 61.3893C2.253 61.2307 -3.64625e-05 58.8454 -3.64625e-05 56.0616L-3.64625e-05 5.0403C-3.64625e-05 2.25652 2.253 0.128394 5.03226 0.287002V0.287002C7.81151 0.445611 10.0645 2.83089 10.0645 5.61467L10.0645 56.636C10.0645 59.4198 7.81151 61.5479 5.03226 61.3893V61.3893Z" fill="#289E74" fill-opacity="0.1"/>
<path d="M5.03226 391.3C2.253 391.142 -3.64625e-05 388.757 -3.64625e-05 385.973L-3.64625e-05 334.951C-3.64625e-05 332.168 2.253 330.04 5.03226 330.198V330.198C7.81151 330.357 10.0645 332.742 10.0645 335.526L10.0645 386.547C10.0645 389.331 7.81151 391.459 5.03226 391.3V391.3Z" fill="#289E74" fill-opacity="0.1"/>
<path d="M5.03226 634.71C2.253 634.552 -3.64625e-05 632.166 -3.64625e-05 629.383L-3.64625e-05 578.361C-3.64625e-05 575.578 2.253 573.449 5.03226 573.608V573.608C7.81151 573.767 10.0645 576.152 10.0645 578.936L10.0645 629.957C10.0645 632.741 7.81151 634.869 5.03226 634.71V634.71Z" fill="#289E74" fill-opacity="0.1"/>
<rect width="61.1023" height="10.081" rx="5.04048" transform="matrix(0 -1 0.998375 0.056976 0 228.069)" fill="#6341C1" fill-opacity="0.1"/>
<rect width="61.1023" height="10.081" rx="5.04048" transform="matrix(0 -1 0.998375 0.056976 35 537.864)" fill="#FF5F5F" fill-opacity="0.1"/>
<rect width="61.1023" height="10.081" rx="5.04048" transform="matrix(0 -1 0.998375 0.056976 35 791.333)" fill="#FF5F5F" fill-opacity="0.1"/>
<rect width="61.1023" height="10.081" rx="5.04048" transform="matrix(0 -1 0.998375 0.056976 35 209.965)" fill="#FF5F5F" fill-opacity="0.1"/>
<path d="M40.4677 615.025C37.6885 614.866 35.4354 612.481 35.4354 609.697L35.4354 558.676C35.4354 555.892 37.6885 553.764 40.4677 553.923V553.923C43.247 554.081 45.5 556.467 45.5 559.25L45.5 610.272C45.5 613.056 43.247 615.184 40.4677 615.025V615.025Z" fill="#955656" fill-opacity="0.1"/>
<rect width="61.1023" height="10.081" rx="5.04048" transform="matrix(0 -1 0.998375 0.056976 35 378.943)" fill="#FFA26D" fill-opacity="0.1"/>
<path d="M40.0323 129.785C37.253 129.627 35 127.242 35 124.458V73.4365C35 70.6527 37.253 68.5246 40.0323 68.6832V68.6832C42.8115 68.8418 45.0645 71.2271 45.0645 74.0108V125.032C45.0645 127.816 42.8115 129.944 40.0323 129.785V129.785Z" fill="#289E74" fill-opacity="0.1"/>
<path d="M40.0323 459.696C37.253 459.538 35 457.153 35 454.369V403.347C35 400.564 37.253 398.436 40.0323 398.594V398.594C42.8115 398.753 45.0645 401.138 45.0645 403.922V454.943C45.0645 457.727 42.8115 459.855 40.0323 459.696V459.696Z" fill="#289E74" fill-opacity="0.1"/>
<path d="M40.0323 703.107C37.253 702.948 35 700.563 35 697.779V646.758C35 643.974 37.253 641.846 40.0323 642.004V642.004C42.8115 642.163 45.0645 644.548 45.0645 647.332V698.353C45.0645 701.137 42.8115 703.265 40.0323 703.107V703.107Z" fill="#289E74" fill-opacity="0.1"/>
<rect width="61.1023" height="10.081" rx="5.04048" transform="matrix(0 -1 0.998375 0.056976 35 296.466)" fill="#6341C1" fill-opacity="0.1"/>
<rect width="61.1023" height="10.081" rx="5.04048" transform="matrix(0 -1 0.998375 0.056976 69 503.666)" fill="#FF5F5F" fill-opacity="0.1"/>
<rect width="61.1023" height="10.081" rx="5.04048" transform="matrix(0 -1 0.998375 0.056976 69 757.134)" fill="#FF5F5F" fill-opacity="0.1"/>
<rect width="61.1023" height="10.081" rx="5.04048" transform="matrix(0 -1 0.998375 0.056976 69 175.766)" fill="#FF5F5F" fill-opacity="0.1"/>
<path d="M74.4677 580.827C71.6885 580.668 69.4354 578.283 69.4354 575.499V524.478C69.4354 521.694 71.6885 519.566 74.4677 519.725V519.725C77.247 519.883 79.5 522.269 79.5 525.052V576.074C79.5 578.858 77.247 580.986 74.4677 580.827V580.827Z" fill="#955656" fill-opacity="0.1"/>
<rect width="61.1023" height="10.081" rx="5.04048" transform="matrix(0 -1 0.998375 0.056976 69 344.745)" fill="#FFA26D" fill-opacity="0.1"/>
<path d="M74.0323 95.5874C71.253 95.4287 69 93.0435 69 90.2597L69 39.2384C69 36.4546 71.253 34.3265 74.0323 34.4851V34.4851C76.8115 34.6437 79.0645 37.0289 79.0645 39.8127V90.8341C79.0645 93.6178 76.8115 95.746 74.0323 95.5874V95.5874Z" fill="#289E74" fill-opacity="0.1"/>
<path d="M74.0323 425.499C71.253 425.34 69 422.955 69 420.171L69 369.15C69 366.366 71.253 364.238 74.0323 364.396V364.396C76.8115 364.555 79.0645 366.94 79.0645 369.724V420.745C79.0645 423.529 76.8115 425.657 74.0323 425.499V425.499Z" fill="#289E74" fill-opacity="0.1"/>
<path d="M74.0323 668.909C71.253 668.75 69 666.365 69 663.581L69 612.56C69 609.776 71.253 607.648 74.0323 607.806V607.806C76.8115 607.965 79.0645 610.35 79.0645 613.134V664.155C79.0645 666.939 76.8115 669.067 74.0323 668.909V668.909Z" fill="#289E74" fill-opacity="0.1"/>
<rect width="61.1023" height="10.081" rx="5.04048" transform="matrix(0 -1 0.998375 0.056976 69 262.267)" fill="#6341C1" fill-opacity="0.1"/>
<rect width="61.1023" height="10.081" rx="5.04048" transform="matrix(0 -1 0.998375 0.056976 69 503.666)" fill="#FF5F5F" fill-opacity="0.1"/>
<rect width="61.1023" height="10.081" rx="5.04048" transform="matrix(0 -1 0.998375 0.056976 69 757.134)" fill="#FF5F5F" fill-opacity="0.1"/>
<rect width="61.1023" height="10.081" rx="5.04048" transform="matrix(0 -1 0.998375 0.056976 69 175.766)" fill="#FF5F5F" fill-opacity="0.1"/>
<path d="M74.4677 580.827C71.6885 580.668 69.4354 578.283 69.4354 575.499V524.478C69.4354 521.694 71.6885 519.566 74.4677 519.725V519.725C77.247 519.883 79.5 522.269 79.5 525.052V576.074C79.5 578.858 77.247 580.986 74.4677 580.827V580.827Z" fill="#955656" fill-opacity="0.1"/>
<rect width="61.1023" height="10.081" rx="5.04048" transform="matrix(0 -1 0.998375 0.056976 69 344.745)" fill="#FFA26D" fill-opacity="0.1"/>
<path d="M74.0323 95.5874C71.253 95.4287 69 93.0435 69 90.2597L69 39.2384C69 36.4546 71.253 34.3265 74.0323 34.4851V34.4851C76.8115 34.6437 79.0645 37.0289 79.0645 39.8127V90.8341C79.0645 93.6178 76.8115 95.746 74.0323 95.5874V95.5874Z" fill="#289E74" fill-opacity="0.1"/>
<path d="M74.0323 425.499C71.253 425.34 69 422.955 69 420.171L69 369.15C69 366.366 71.253 364.238 74.0323 364.396V364.396C76.8115 364.555 79.0645 366.94 79.0645 369.724V420.745C79.0645 423.529 76.8115 425.657 74.0323 425.499V425.499Z" fill="#289E74" fill-opacity="0.1"/>
<path d="M74.0323 668.909C71.253 668.75 69 666.365 69 663.581L69 612.56C69 609.776 71.253 607.648 74.0323 607.806V607.806C76.8115 607.965 79.0645 610.35 79.0645 613.134V664.155C79.0645 666.939 76.8115 669.067 74.0323 668.909V668.909Z" fill="#289E74" fill-opacity="0.1"/>
<rect width="61.1023" height="10.081" rx="5.04048" transform="matrix(0 -1 0.998375 0.056976 69 262.267)" fill="#6341C1" fill-opacity="0.1"/>
<rect width="61.1023" height="10.081" rx="5.04048" transform="matrix(0 -1 0.998375 0.056976 103 545.911)" fill="#FF5F5F" fill-opacity="0.1"/>
<rect width="61.1023" height="10.081" rx="5.04048" transform="matrix(0 -1 0.998375 0.056976 103 799.379)" fill="#FF5F5F" fill-opacity="0.1"/>
<rect width="61.1023" height="10.081" rx="5.04048" transform="matrix(0 -1 0.998375 0.056976 103 218.011)" fill="#FF5F5F" fill-opacity="0.1"/>
<path d="M108.468 623.072C105.688 622.913 103.435 620.528 103.435 617.744V566.723C103.435 563.939 105.688 561.811 108.468 561.969V561.969C111.247 562.128 113.5 564.513 113.5 567.297V618.318C113.5 621.102 111.247 623.23 108.468 623.072V623.072Z" fill="#955656" fill-opacity="0.1"/>
<rect width="61.1023" height="10.081" rx="5.04048" transform="matrix(0 -1 0.998375 0.056976 103 386.99)" fill="#FFA26D" fill-opacity="0.1"/>
<path d="M108.032 137.832C105.253 137.674 103 135.288 103 132.505L103 81.4832C103 78.6995 105.253 76.5713 108.032 76.7299V76.7299C110.812 76.8885 113.065 79.2738 113.065 82.0576V133.079C113.065 135.863 110.812 137.991 108.032 137.832V137.832Z" fill="#289E74" fill-opacity="0.1"/>
<path d="M108.032 467.743C105.253 467.585 103 465.199 103 462.415L103 411.394C103 408.61 105.253 406.482 108.032 406.641V406.641C110.812 406.799 113.065 409.185 113.065 411.968V462.99C113.065 465.774 110.812 467.902 108.032 467.743V467.743Z" fill="#289E74" fill-opacity="0.1"/>
<path d="M108.032 711.153C105.253 710.995 103 708.609 103 705.826L103 654.804C103 652.02 105.253 649.892 108.032 650.051V650.051C110.812 650.21 113.065 652.595 113.065 655.379V706.4C113.065 709.184 110.812 711.312 108.032 711.153V711.153Z" fill="#289E74" fill-opacity="0.1"/>
<rect width="61.1023" height="10.081" rx="5.04048" transform="matrix(0 -1 0.998375 0.056976 103 304.512)" fill="#6341C1" fill-opacity="0.1"/>
<rect width="61.1023" height="10.081" rx="5.04048" transform="matrix(0 -1 0.998375 0.056976 137 507.689)" fill="#FF5F5F" fill-opacity="0.1"/>
<rect width="61.1023" height="10.081" rx="5.04048" transform="matrix(0 -1 0.998375 0.056976 137 761.157)" fill="#FF5F5F" fill-opacity="0.1"/>
<rect width="61.1023" height="10.081" rx="5.04048" transform="matrix(0 -1 0.998375 0.056976 137 179.79)" fill="#FF5F5F" fill-opacity="0.1"/>
<path d="M142.468 584.85C139.688 584.692 137.435 582.307 137.435 579.523V528.501C137.435 525.718 139.688 523.59 142.468 523.748V523.748C145.247 523.907 147.5 526.292 147.5 529.076L147.5 580.097C147.5 582.881 145.247 585.009 142.468 584.85V584.85Z" fill="#955656" fill-opacity="0.1"/>
<rect width="61.1023" height="10.081" rx="5.04048" transform="matrix(0 -1 0.998375 0.056976 137 348.769)" fill="#FFA26D" fill-opacity="0.1"/>
<path d="M142.032 99.6107C139.253 99.4521 137 97.0668 137 94.283V43.2617C137 40.4779 139.253 38.3498 142.032 38.5084V38.5084C144.812 38.667 147.065 41.0523 147.065 43.836L147.065 94.8574C147.065 97.6412 144.812 99.7693 142.032 99.6107V99.6107Z" fill="#289E74" fill-opacity="0.1"/>
<path d="M142.032 429.522C139.253 429.363 137 426.978 137 424.194V373.173C137 370.389 139.253 368.261 142.032 368.42V368.42C144.812 368.578 147.065 370.964 147.065 373.747L147.065 424.769C147.065 427.552 144.812 429.681 142.032 429.522V429.522Z" fill="#289E74" fill-opacity="0.1"/>
<path d="M142.032 672.932C139.253 672.773 137 670.388 137 667.604V616.583C137 613.799 139.253 611.671 142.032 611.83V611.83C144.812 611.988 147.065 614.373 147.065 617.157L147.065 668.179C147.065 670.962 144.812 673.09 142.032 672.932V672.932Z" fill="#289E74" fill-opacity="0.1"/>
<rect width="61.1023" height="10.081" rx="5.04048" transform="matrix(0 -1 0.998375 0.056976 137 266.291)" fill="#6341C1" fill-opacity="0.1"/>
<rect width="61.1023" height="10.081" rx="5.04048" transform="matrix(0 -1 0.998375 0.056976 171 545.911)" fill="#FF5F5F" fill-opacity="0.1"/>
<rect width="61.1023" height="10.081" rx="5.04048" transform="matrix(0 -1 0.998375 0.056976 171 799.379)" fill="#FF5F5F" fill-opacity="0.1"/>
<rect width="61.1023" height="10.081" rx="5.04048" transform="matrix(0 -1 0.998375 0.056976 171 218.011)" fill="#FF5F5F" fill-opacity="0.1"/>
<path d="M176.468 623.072C173.688 622.913 171.435 620.528 171.435 617.744V566.723C171.435 563.939 173.688 561.811 176.468 561.969V561.969C179.247 562.128 181.5 564.513 181.5 567.297L181.5 618.318C181.5 621.102 179.247 623.23 176.468 623.072V623.072Z" fill="#955656" fill-opacity="0.1"/>
<rect width="61.1023" height="10.081" rx="5.04048" transform="matrix(0 -1 0.998375 0.056976 171 386.99)" fill="#FFA26D" fill-opacity="0.1"/>
<path d="M176.032 137.832C173.253 137.674 171 135.288 171 132.505V81.4832C171 78.6995 173.253 76.5713 176.032 76.7299V76.7299C178.812 76.8885 181.065 79.2738 181.065 82.0576L181.065 133.079C181.065 135.863 178.812 137.991 176.032 137.832V137.832Z" fill="#289E74" fill-opacity="0.1"/>
<path d="M176.032 467.743C173.253 467.585 171 465.199 171 462.415V411.394C171 408.61 173.253 406.482 176.032 406.641V406.641C178.812 406.799 181.065 409.185 181.065 411.968L181.065 462.99C181.065 465.774 178.812 467.902 176.032 467.743V467.743Z" fill="#289E74" fill-opacity="0.1"/>
<path d="M176.032 711.153C173.253 710.995 171 708.609 171 705.826V654.804C171 652.02 173.253 649.892 176.032 650.051V650.051C178.812 650.21 181.065 652.595 181.065 655.379L181.065 706.4C181.065 709.184 178.812 711.312 176.032 711.153V711.153Z" fill="#289E74" fill-opacity="0.1"/>
<rect width="61.1023" height="10.081" rx="5.04048" transform="matrix(0 -1 0.998375 0.056976 171 304.512)" fill="#6341C1" fill-opacity="0.1"/>
<rect width="61.1023" height="10.081" rx="5.04048" transform="matrix(0 -1 0.998375 0.056976 205 511.713)" fill="#FF5F5F" fill-opacity="0.1"/>
<rect width="61.1023" height="10.081" rx="5.04048" transform="matrix(0 -1 0.998375 0.056976 205 765.181)" fill="#FF5F5F" fill-opacity="0.1"/>
<rect width="61.1023" height="10.081" rx="5.04048" transform="matrix(0 -1 0.998375 0.056976 205 183.813)" fill="#FF5F5F" fill-opacity="0.1"/>
<path d="M210.468 588.874C207.688 588.715 205.435 586.33 205.435 583.546V532.525C205.435 529.741 207.688 527.613 210.468 527.771V527.771C213.247 527.93 215.5 530.315 215.5 533.099L215.5 584.12C215.5 586.904 213.247 589.032 210.468 588.874V588.874Z" fill="#955656" fill-opacity="0.1"/>
<rect width="61.1023" height="10.081" rx="5.04048" transform="matrix(0 -1 0.998375 0.056976 205 352.792)" fill="#FFA26D" fill-opacity="0.1"/>
<path d="M210.032 103.634C207.253 103.475 205 101.09 205 98.3063V47.285C205 44.5012 207.253 42.3731 210.032 42.5317V42.5317C212.812 42.6903 215.065 45.0756 215.065 47.8594L215.065 98.8807C215.065 101.664 212.812 103.793 210.032 103.634V103.634Z" fill="#289E74" fill-opacity="0.1"/>
<path d="M210.032 433.545C207.253 433.387 205 431.001 205 428.217V377.196C205 374.412 207.253 372.284 210.032 372.443V372.443C212.812 372.601 215.065 374.987 215.065 377.77L215.065 428.792C215.065 431.576 212.812 433.704 210.032 433.545V433.545Z" fill="#289E74" fill-opacity="0.1"/>
<path d="M210.032 676.955C207.253 676.797 205 674.411 205 671.627V620.606C205 617.822 207.253 615.694 210.032 615.853V615.853C212.812 616.011 215.065 618.397 215.065 621.181L215.065 672.202C215.065 674.986 212.812 677.114 210.032 676.955V676.955Z" fill="#289E74" fill-opacity="0.1"/>
<rect width="61.1023" height="10.081" rx="5.04048" transform="matrix(0 -1 0.998375 0.056976 205 270.314)" fill="#6341C1" fill-opacity="0.1"/>
<rect width="61.1023" height="10.081" rx="5.04048" transform="matrix(0 -1 0.998375 0.056976 205 511.713)" fill="#FF5F5F" fill-opacity="0.1"/>
<rect width="61.1023" height="10.081" rx="5.04048" transform="matrix(0 -1 0.998375 0.056976 205 765.181)" fill="#FF5F5F" fill-opacity="0.1"/>
<rect width="61.1023" height="10.081" rx="5.04048" transform="matrix(0 -1 0.998375 0.056976 205 183.813)" fill="#FF5F5F" fill-opacity="0.1"/>
<path d="M210.468 588.874C207.688 588.715 205.435 586.33 205.435 583.546V532.525C205.435 529.741 207.688 527.613 210.468 527.771V527.771C213.247 527.93 215.5 530.315 215.5 533.099L215.5 584.12C215.5 586.904 213.247 589.032 210.468 588.874V588.874Z" fill="#955656" fill-opacity="0.1"/>
<rect width="61.1023" height="10.081" rx="5.04048" transform="matrix(0 -1 0.998375 0.056976 205 352.792)" fill="#FFA26D" fill-opacity="0.1"/>
<path d="M210.032 103.634C207.253 103.475 205 101.09 205 98.3063V47.285C205 44.5012 207.253 42.3731 210.032 42.5317V42.5317C212.812 42.6903 215.065 45.0756 215.065 47.8594L215.065 98.8807C215.065 101.664 212.812 103.793 210.032 103.634V103.634Z" fill="#289E74" fill-opacity="0.1"/>
<path d="M210.032 433.545C207.253 433.387 205 431.001 205 428.217V377.196C205 374.412 207.253 372.284 210.032 372.443V372.443C212.812 372.601 215.065 374.987 215.065 377.77L215.065 428.792C215.065 431.576 212.812 433.704 210.032 433.545V433.545Z" fill="#289E74" fill-opacity="0.1"/>
<path d="M210.032 676.955C207.253 676.797 205 674.411 205 671.627V620.606C205 617.822 207.253 615.694 210.032 615.853V615.853C212.812 616.011 215.065 618.397 215.065 621.181L215.065 672.202C215.065 674.986 212.812 677.114 210.032 676.955V676.955Z" fill="#289E74" fill-opacity="0.1"/>
<rect width="61.1023" height="10.081" rx="5.04048" transform="matrix(0 -1 0.998375 0.056976 205 270.314)" fill="#6341C1" fill-opacity="0.1"/>
<rect width="61.1023" height="10.081" rx="5.04048" transform="matrix(0 -1 0.998375 0.056976 239 553.957)" fill="#FF5F5F" fill-opacity="0.1"/>
<rect width="61.1023" height="10.081" rx="5.04048" transform="matrix(0 -1 0.998375 0.056976 239 807.426)" fill="#FF5F5F" fill-opacity="0.1"/>
<rect width="61.1023" height="10.081" rx="5.04048" transform="matrix(0 -1 0.998375 0.056976 239 226.058)" fill="#FF5F5F" fill-opacity="0.1"/>
<path d="M244.468 631.118C241.688 630.96 239.435 628.574 239.435 625.791V574.769C239.435 571.986 241.688 569.857 244.468 570.016V570.016C247.247 570.175 249.5 572.56 249.5 575.344L249.5 626.365C249.5 629.149 247.247 631.277 244.468 631.118V631.118Z" fill="#955656" fill-opacity="0.1"/>
<rect width="61.1023" height="10.081" rx="5.04048" transform="matrix(0 -1 0.998375 0.056976 239 395.037)" fill="#FFA26D" fill-opacity="0.1"/>
<path d="M244.032 145.879C241.253 145.72 239 143.335 239 140.551V89.5299C239 86.7461 241.253 84.618 244.032 84.7766V84.7766C246.812 84.9352 249.065 87.3205 249.065 90.1042L249.065 141.126C249.065 143.909 246.812 146.037 244.032 145.879V145.879Z" fill="#289E74" fill-opacity="0.1"/>
<path d="M244.032 475.79C241.253 475.631 239 473.246 239 470.462V419.441C239 416.657 241.253 414.529 244.032 414.687V414.687C246.812 414.846 249.065 417.231 249.065 420.015L249.065 471.036C249.065 473.82 246.812 475.948 244.032 475.79V475.79Z" fill="#289E74" fill-opacity="0.1"/>
<path d="M244.032 719.2C241.253 719.041 239 716.656 239 713.872V662.851C239 660.067 241.253 657.939 244.032 658.098V658.098C246.812 658.256 249.065 660.641 249.065 663.425L249.065 714.447C249.065 717.23 246.812 719.359 244.032 719.2V719.2Z" fill="#289E74" fill-opacity="0.1"/>
<rect width="61.1023" height="10.081" rx="5.04048" transform="matrix(0 -1 0.998375 0.056976 239 312.559)" fill="#6341C1" fill-opacity="0.1"/>
<rect width="61.1023" height="10.081" rx="5.04048" transform="matrix(0 -1 0.998375 0.056976 273 515.736)" fill="#FF5F5F" fill-opacity="0.1"/>
<rect width="61.1023" height="10.081" rx="5.04048" transform="matrix(0 -1 0.998375 0.056976 273 769.204)" fill="#FF5F5F" fill-opacity="0.1"/>
<rect width="61.1023" height="10.081" rx="5.04048" transform="matrix(0 -1 0.998375 0.056976 273 187.836)" fill="#FF5F5F" fill-opacity="0.1"/>
<path d="M278.468 592.897C275.688 592.738 273.435 590.353 273.435 587.569V536.548C273.435 533.764 275.688 531.636 278.468 531.795V531.795C281.247 531.953 283.5 534.339 283.5 537.122V588.144C283.5 590.928 281.247 593.056 278.468 592.897V592.897Z" fill="#955656" fill-opacity="0.1"/>
<rect width="61.1023" height="10.081" rx="5.04048" transform="matrix(0 -1 0.998375 0.056976 273 356.815)" fill="#FFA26D" fill-opacity="0.1"/>
<path d="M278.032 107.657C275.253 107.499 273 105.113 273 102.33V51.3083C273 48.5245 275.253 46.3964 278.032 46.555V46.555C280.812 46.7136 283.065 49.0989 283.065 51.8827V102.904C283.065 105.688 280.812 107.816 278.032 107.657V107.657Z" fill="#289E74" fill-opacity="0.1"/>
<path d="M278.032 437.568C275.253 437.41 273 435.025 273 432.241V381.219C273 378.436 275.253 376.308 278.032 376.466V376.466C280.812 376.625 283.065 379.01 283.065 381.794V432.815C283.065 435.599 280.812 437.727 278.032 437.568V437.568Z" fill="#289E74" fill-opacity="0.1"/>
<path d="M278.032 680.978C275.253 680.82 273 678.435 273 675.651V624.629C273 621.846 275.253 619.718 278.032 619.876V619.876C280.812 620.035 283.065 622.42 283.065 625.204V676.225C283.065 679.009 280.812 681.137 278.032 680.978V680.978Z" fill="#289E74" fill-opacity="0.1"/>
<rect width="61.1023" height="10.081" rx="5.04048" transform="matrix(0 -1 0.998375 0.056976 273 274.337)" fill="#6341C1" fill-opacity="0.1"/>
<rect width="61.1023" height="10.081" rx="5.04048" transform="matrix(0 -1 0.998375 0.056976 306 503.666)" fill="#FF5F5F" fill-opacity="0.1"/>
<rect width="61.1023" height="10.081" rx="5.04048" transform="matrix(0 -1 0.998375 0.056976 306 757.134)" fill="#FF5F5F" fill-opacity="0.1"/>
<rect width="61.1023" height="10.081" rx="5.04048" transform="matrix(0 -1 0.998375 0.056976 306 175.766)" fill="#FF5F5F" fill-opacity="0.1"/>
<path d="M311.468 580.827C308.688 580.668 306.435 578.283 306.435 575.499V524.478C306.435 521.694 308.688 519.566 311.468 519.725V519.725C314.247 519.883 316.5 522.269 316.5 525.052V576.074C316.5 578.858 314.247 580.986 311.468 580.827V580.827Z" fill="#955656" fill-opacity="0.1"/>
<rect width="61.1023" height="10.081" rx="5.04048" transform="matrix(0 -1 0.998375 0.056976 306 344.745)" fill="#FFA26D" fill-opacity="0.1"/>
<path d="M311.032 95.5874C308.253 95.4287 306 93.0435 306 90.2597V39.2384C306 36.4546 308.253 34.3265 311.032 34.4851V34.4851C313.812 34.6437 316.065 37.0289 316.065 39.8127V90.8341C316.065 93.6178 313.812 95.746 311.032 95.5874V95.5874Z" fill="#289E74" fill-opacity="0.1"/>
<path d="M311.032 425.499C308.253 425.34 306 422.955 306 420.171V369.15C306 366.366 308.253 364.238 311.032 364.396V364.396C313.812 364.555 316.065 366.94 316.065 369.724V420.745C316.065 423.529 313.812 425.657 311.032 425.499V425.499Z" fill="#289E74" fill-opacity="0.1"/>
<path d="M311.032 668.909C308.253 668.75 306 666.365 306 663.581V612.56C306 609.776 308.253 607.648 311.032 607.806V607.806C313.812 607.965 316.065 610.35 316.065 613.134V664.155C316.065 666.939 313.812 669.067 311.032 668.909V668.909Z" fill="#289E74" fill-opacity="0.1"/>
<rect width="61.1023" height="10.081" rx="5.04048" transform="matrix(0 -1 0.998375 0.056976 306 262.267)" fill="#6341C1" fill-opacity="0.1"/>
<rect width="61.1023" height="10.081" rx="5.04048" transform="matrix(0 -1 0.998375 0.056976 340 469.468)" fill="#FF5F5F" fill-opacity="0.1"/>
<rect width="61.1023" height="10.081" rx="5.04048" transform="matrix(0 -1 0.998375 0.056976 340 722.936)" fill="#FF5F5F" fill-opacity="0.1"/>
<rect width="61.1023" height="10.081" rx="5.04048" transform="matrix(0 -1 0.998375 0.056976 340 141.568)" fill="#FF5F5F" fill-opacity="0.1"/>
<path d="M345.468 546.629C342.688 546.47 340.435 544.085 340.435 541.301V490.28C340.435 487.496 342.688 485.368 345.468 485.527V485.527C348.247 485.685 350.5 488.071 350.5 490.854V541.876C350.5 544.659 348.247 546.788 345.468 546.629V546.629Z" fill="#955656" fill-opacity="0.1"/>
<rect width="61.1023" height="10.081" rx="5.04048" transform="matrix(0 -1 0.998375 0.056976 340 310.547)" fill="#FFA26D" fill-opacity="0.1"/>
<path d="M345.032 61.3893C342.253 61.2307 340 58.8454 340 56.0616V5.0403C340 2.25652 342.253 0.128394 345.032 0.287002V0.287002C347.812 0.445611 350.065 2.83089 350.065 5.61467V56.636C350.065 59.4198 347.812 61.5479 345.032 61.3893V61.3893Z" fill="#289E74" fill-opacity="0.1"/>
<path d="M345.032 391.3C342.253 391.142 340 388.757 340 385.973V334.951C340 332.168 342.253 330.04 345.032 330.198V330.198C347.812 330.357 350.065 332.742 350.065 335.526V386.547C350.065 389.331 347.812 391.459 345.032 391.3V391.3Z" fill="#289E74" fill-opacity="0.1"/>
<path d="M345.032 634.71C342.253 634.552 340 632.166 340 629.383V578.361C340 575.578 342.253 573.449 345.032 573.608V573.608C347.812 573.767 350.065 576.152 350.065 578.936V629.957C350.065 632.741 347.812 634.869 345.032 634.71V634.71Z" fill="#289E74" fill-opacity="0.1"/>
<rect width="61.1023" height="10.081" rx="5.04048" transform="matrix(0 -1 0.998375 0.056976 340 228.069)" fill="#6341C1" fill-opacity="0.1"/>
<rect width="61.1023" height="10.081" rx="5.04048" transform="matrix(0 -1 0.998375 0.056976 340 469.468)" fill="#FF5F5F" fill-opacity="0.1"/>
<rect width="61.1023" height="10.081" rx="5.04048" transform="matrix(0 -1 0.998375 0.056976 340 722.936)" fill="#FF5F5F" fill-opacity="0.1"/>
<rect width="61.1023" height="10.081" rx="5.04048" transform="matrix(0 -1 0.998375 0.056976 340 141.568)" fill="#FF5F5F" fill-opacity="0.1"/>
<path d="M345.468 546.629C342.688 546.47 340.435 544.085 340.435 541.301V490.28C340.435 487.496 342.688 485.368 345.468 485.527V485.527C348.247 485.685 350.5 488.071 350.5 490.854V541.876C350.5 544.659 348.247 546.788 345.468 546.629V546.629Z" fill="#955656" fill-opacity="0.1"/>
<rect width="61.1023" height="10.081" rx="5.04048" transform="matrix(0 -1 0.998375 0.056976 340 310.547)" fill="#FFA26D" fill-opacity="0.1"/>
<path d="M345.032 61.3893C342.253 61.2307 340 58.8454 340 56.0616V5.0403C340 2.25652 342.253 0.128394 345.032 0.287002V0.287002C347.812 0.445611 350.065 2.83089 350.065 5.61467V56.636C350.065 59.4198 347.812 61.5479 345.032 61.3893V61.3893Z" fill="#289E74" fill-opacity="0.1"/>
<path d="M345.032 391.3C342.253 391.142 340 388.757 340 385.973V334.951C340 332.168 342.253 330.04 345.032 330.198V330.198C347.812 330.357 350.065 332.742 350.065 335.526V386.547C350.065 389.331 347.812 391.459 345.032 391.3V391.3Z" fill="#289E74" fill-opacity="0.1"/>
<path d="M345.032 634.71C342.253 634.552 340 632.166 340 629.383V578.361C340 575.578 342.253 573.449 345.032 573.608V573.608C347.812 573.767 350.065 576.152 350.065 578.936V629.957C350.065 632.741 347.812 634.869 345.032 634.71V634.71Z" fill="#289E74" fill-opacity="0.1"/>
<rect width="61.1023" height="10.081" rx="5.04048" transform="matrix(0 -1 0.998375 0.056976 340 228.069)" fill="#6341C1" fill-opacity="0.1"/>
<rect width="61.1023" height="10.081" rx="5.04048" transform="matrix(0 -1 0.998375 0.056976 374 511.713)" fill="#FF5F5F" fill-opacity="0.1"/>
<rect width="61.1023" height="10.081" rx="5.04048" transform="matrix(0 -1 0.998375 0.056976 374 765.181)" fill="#FF5F5F" fill-opacity="0.1"/>
<rect width="61.1023" height="10.081" rx="5.04048" transform="matrix(0 -1 0.998375 0.056976 374 183.813)" fill="#FF5F5F" fill-opacity="0.1"/>
<path d="M379.468 588.874C376.688 588.715 374.435 586.33 374.435 583.546V532.525C374.435 529.741 376.688 527.613 379.468 527.771V527.771C382.247 527.93 384.5 530.315 384.5 533.099V584.12C384.5 586.904 382.247 589.032 379.468 588.874V588.874Z" fill="#955656" fill-opacity="0.1"/>
<rect width="61.1023" height="10.081" rx="5.04048" transform="matrix(0 -1 0.998375 0.056976 374 352.792)" fill="#FFA26D" fill-opacity="0.1"/>
<path d="M379.032 103.634C376.253 103.475 374 101.09 374 98.3063V47.285C374 44.5012 376.253 42.3731 379.032 42.5317V42.5317C381.812 42.6903 384.065 45.0756 384.065 47.8594V98.8807C384.065 101.664 381.812 103.793 379.032 103.634V103.634Z" fill="#289E74" fill-opacity="0.1"/>
<path d="M379.032 433.545C376.253 433.387 374 431.001 374 428.217V377.196C374 374.412 376.253 372.284 379.032 372.443V372.443C381.812 372.601 384.065 374.987 384.065 377.77V428.792C384.065 431.576 381.812 433.704 379.032 433.545V433.545Z" fill="#289E74" fill-opacity="0.1"/>
<path d="M379.032 676.955C376.253 676.797 374 674.411 374 671.627V620.606C374 617.822 376.253 615.694 379.032 615.853V615.853C381.812 616.011 384.065 618.397 384.065 621.181V672.202C384.065 674.986 381.812 677.114 379.032 676.955V676.955Z" fill="#289E74" fill-opacity="0.1"/>
<rect width="61.1023" height="10.081" rx="5.04048" transform="matrix(0 -1 0.998375 0.056976 374 270.314)" fill="#6341C1" fill-opacity="0.1"/>
<rect width="61.1023" height="10.081" rx="5.04048" transform="matrix(0 -1 0.998375 0.056976 408 473.491)" fill="#FF5F5F" fill-opacity="0.1"/>
<rect width="61.1023" height="10.081" rx="5.04048" transform="matrix(0 -1 0.998375 0.056976 408 726.959)" fill="#FF5F5F" fill-opacity="0.1"/>
<rect width="61.1023" height="10.081" rx="5.04048" transform="matrix(0 -1 0.998375 0.056976 408 145.592)" fill="#FF5F5F" fill-opacity="0.1"/>
<path d="M413.468 550.652C410.688 550.494 408.435 548.109 408.435 545.325V494.303C408.435 491.52 410.688 489.392 413.468 489.55V489.55C416.247 489.709 418.5 492.094 418.5 494.878V545.899C418.5 548.683 416.247 550.811 413.468 550.652V550.652Z" fill="#955656" fill-opacity="0.1"/>
<rect width="61.1023" height="10.081" rx="5.04048" transform="matrix(0 -1 0.998375 0.056976 408 314.571)" fill="#FFA26D" fill-opacity="0.1"/>
<path d="M413.032 65.4126C410.253 65.254 408 62.8687 408 60.0849V9.06361C408 6.27983 410.253 4.15171 413.032 4.31032V4.31032C415.812 4.46893 418.065 6.8542 418.065 9.63798V60.6593C418.065 63.4431 415.812 65.5712 413.032 65.4126V65.4126Z" fill="#289E74" fill-opacity="0.1"/>
<path d="M413.032 395.324C410.253 395.165 408 392.78 408 389.996V338.975C408 336.191 410.253 334.063 413.032 334.222V334.222C415.812 334.38 418.065 336.765 418.065 339.549V390.571C418.065 393.354 415.812 395.482 413.032 395.324V395.324Z" fill="#289E74" fill-opacity="0.1"/>
<path d="M413.032 638.734C410.253 638.575 408 636.19 408 633.406V582.385C408 579.601 410.253 577.473 413.032 577.631V577.631C415.812 577.79 418.065 580.175 418.065 582.959V633.98C418.065 636.764 415.812 638.892 413.032 638.734V638.734Z" fill="#289E74" fill-opacity="0.1"/>
<rect width="61.1023" height="10.081" rx="5.04048" transform="matrix(0 -1 0.998375 0.056976 408 232.093)" fill="#6341C1" fill-opacity="0.1"/>
</svg>
