<svg width="40" height="34" viewBox="0 0 40 34" fill="none" xmlns="http://www.w3.org/2000/svg">
<path d="M27.3677 0C22.5857 0 18.697 4.02989 18.697 8.98553C18.697 9.28332 18.7689 9.57464 18.797 9.86596C12.8843 9.28008 7.65571 6.32807 4.10438 1.81264C3.93884 1.59577 3.68272 1.47925 3.4141 1.49867C3.14861 1.51809 2.91123 1.67669 2.78005 1.91622C2.03355 3.24657 1.60564 4.77761 1.60564 6.42193C1.60564 8.41261 2.29279 10.235 3.35476 11.7304C3.14861 11.6365 2.92372 11.5847 2.73007 11.4714C2.48332 11.3355 2.1866 11.342 1.94609 11.4909C1.70559 11.6398 1.55879 11.9084 1.55566 12.1965V12.3001C1.55566 15.3524 3.0799 18.0034 5.32876 19.6283C5.30377 19.6251 5.27879 19.6348 5.2538 19.6283C4.97894 19.5798 4.70095 19.6801 4.51667 19.897C4.33239 20.1139 4.27304 20.4149 4.35425 20.69C5.24755 23.5676 7.52765 25.7654 10.3512 26.5682C8.10236 27.9535 5.4943 28.7692 2.6801 28.7692C2.07103 28.7692 1.48695 28.7369 0.905991 28.6657C0.531179 28.6139 0.171985 28.8404 0.0470485 29.2094C-0.081012 29.5784 0.0595422 29.9895 0.381255 30.1934C3.98881 32.592 8.27103 34 12.875 34C20.3368 34 26.1901 30.7696 30.1163 26.1538C34.0424 21.5381 36.0883 15.5434 36.0883 9.94364C36.0883 9.70735 36.0695 9.47753 36.0633 9.24448C37.5282 8.08244 38.8369 6.71973 39.8614 5.12719C40.0644 4.81969 40.0425 4.40861 39.8083 4.12376C39.5771 3.83892 39.1867 3.75152 38.8619 3.91013C38.4496 4.1011 37.9686 4.12053 37.5375 4.27266C38.106 3.4861 38.5933 2.63804 38.8869 1.68317C38.9868 1.35625 38.8775 0.996953 38.6182 0.783321C38.359 0.572924 37.9967 0.547029 37.7124 0.725057C36.3475 1.5634 34.8358 2.15251 33.2397 2.51181C31.6905 1.0099 29.6509 0 27.3677 0ZM27.3677 1.65727C29.4073 1.65727 31.2501 2.56036 32.5401 3.98781C32.7337 4.19497 33.0179 4.28237 33.2897 4.22087C34.3329 4.00724 35.323 3.69326 36.2882 3.28865C35.7322 4.0655 35.045 4.72906 34.2392 5.23077C33.8738 5.41527 33.702 5.85225 33.8363 6.25038C33.9675 6.64528 34.3673 6.87509 34.7639 6.78446C35.5635 6.68412 36.2757 6.34749 37.0378 6.13709C36.3538 6.90423 35.6041 7.59692 34.7889 8.20868C34.5672 8.377 34.4453 8.6489 34.4641 8.93374C34.4766 9.27037 34.4891 9.60377 34.4891 9.94364C34.4891 15.1226 32.5713 20.745 28.9169 25.0404C25.2625 29.3357 19.8964 32.3427 12.875 32.3427C9.68594 32.3427 6.67496 31.6112 3.95445 30.3229C7.32775 30.0543 10.4387 28.8178 12.9499 26.7753C13.2123 26.5585 13.3154 26.1959 13.2092 25.8658C13.103 25.5356 12.8094 25.309 12.4752 25.2993C9.83899 25.2508 7.63073 23.6615 6.4532 21.4151C6.49692 21.4151 6.5344 21.4151 6.57813 21.4151C7.36836 21.4151 8.14922 21.3115 8.87697 21.1043C9.2268 20.9975 9.4673 20.6609 9.45481 20.2822C9.44231 19.9035 9.18307 19.5798 8.827 19.4989C5.98156 18.9033 3.84826 16.5015 3.35476 13.5171C4.1606 13.8052 4.98519 14.0318 5.87849 14.0609C6.24393 14.0836 6.57501 13.8473 6.68745 13.488C6.7999 13.1287 6.66247 12.7338 6.35325 12.5331C4.4542 11.2157 3.20483 8.97258 3.20483 6.42193C3.20483 5.47677 3.44221 4.60929 3.75456 3.78065C7.75254 8.32845 13.3497 11.3484 19.6715 11.6786C19.9214 11.6915 20.165 11.5847 20.3275 11.3873C20.4899 11.1866 20.5523 10.9212 20.4961 10.6687C20.3743 10.1314 20.2962 9.56169 20.2962 8.98553C20.2962 4.9265 23.4509 1.65727 27.3677 1.65727Z" fill="#FF687F"/>
</svg>
