<svg xmlns="http://www.w3.org/2000/svg" fill="#fff" enable-background="new 0 0 24 24" viewBox="0 0 24 24"><path d="M3.501,19.636c-0.028,0-0.058-0.002-0.087-0.007c-0.271-0.047-0.454-0.306-0.406-0.578L6.173,0.833c0.072-0.421,0.39-0.742,0.808-0.817c0.423-0.079,0.826,0.114,1.04,0.482l2.842,4.9c0.139,0.239,0.057,0.545-0.182,0.684C10.443,6.219,10.136,6.14,9.997,5.9L7.156,1.001l-3.164,18.22C3.95,19.464,3.739,19.636,3.501,19.636z"/><path d="M12,24.002c-0.465,0-0.93-0.117-1.353-0.351l-7.389-4.073c-0.138-0.076-0.231-0.212-0.254-0.367c-0.022-0.156,0.03-0.312,0.141-0.424L16.965,4.919c0.267-0.266,0.653-0.357,1.008-0.247c0.357,0.114,0.62,0.416,0.685,0.788v0l2.336,13.595c0.036,0.21-0.065,0.419-0.252,0.522l-7.389,4.074C12.93,23.885,12.465,24.002,12,24.002z M4.322,19.022l6.808,3.753c0.545,0.301,1.195,0.3,1.74,0l7.077-3.902L17.671,5.629c0-0.003-0.001-0.005-0.001-0.005L4.322,19.022z"/><path d="M3.5,19.636c-0.077,0-0.155-0.018-0.229-0.055c-0.246-0.126-0.343-0.428-0.216-0.673L11.133,3.19c0.168-0.328,0.501-0.537,0.868-0.544c0.399-0.004,0.708,0.188,0.89,0.509l2.435,4.31c0.136,0.241,0.051,0.545-0.189,0.682c-0.24,0.132-0.546,0.051-0.682-0.189l-2.435-4.31L3.944,19.364C3.856,19.537,3.681,19.636,3.5,19.636z"/></svg>